<svg xmlns="http://www.w3.org/2000/svg" viewBox="0 0 175.7 34.8"><g fill-rule="evenodd" clip-rule="evenodd"><path fill="#33348e" d="M20.4 0c9 0 16.7 5 19.4 11.9h-22L8.7 31.5A16.8 16.8 0 0 1 0 17.4C0 7.8 9.2 0 20.4 0Z"/><path fill="#cc2229" d="m40.7 15 .2 2.4c0 9.6-9.2 17.4-20.5 17.4-1.5 0-3-.2-4.5-.5l5.4-12c1-2.7-.5-5.1-3.2-7.2h22.6z"/><path fill="#33348e" d="M85 6.4H64.8c-5.4 0-12 5.4-13.3 10.5l-.9 3.6c-1.7 7.4 2.9 12.1 7.6 12.1H74c2.5 0 5.2-3 5.8-5.5l2.6-10.4-14 .1-2 3.7H73c1 0 .5 2.1.2 3.1L71.9 27c-.3 1.1-1.3 2.5-2.5 2.5h-7.6c-3.2 0-3.7-6-2.9-9l1-3.6c1-3.6 5.3-7 9-7h15.3zm90.7 0H160c-5.3 0-12 5.4-13.2 10.5l-.9 3.6c-1.7 7.4 2.9 12.1 7.5 12.1h16l.8-3.2H157c-3-.1-3.6-5.8-2.8-9h18l.8-3.1h-18l.2-.5c1-3.6 5.3-7 9-7H175l.8-3.4zm-29.1 0h-15.7c-5.3 0-12 5.4-13.3 10.5l-.8 3.6c-1.8 7.4 2.8 12.1 7.5 12.1h15.9l.8-3.2H128c-3.1-.1-3.6-5.8-2.8-9h18l.8-3.1h-18l.1-.5c1-3.6 5.4-7 9.1-7h10.7l.8-3.4zm-57.5 0-6.5 26.1 8.4.1 5.5-23h10.4c1.4 0 2.2 2.4 2 3.8-.3 1.6-2 4-4.5 4h-7.7l8.3 15.1h9.4l-6.7-12c4.4-.6 8.8-3.8 9-8.4.2-2.3-2.1-5.7-6-5.7H89.2Z"/></g></svg>