<svg xmlns="http://www.w3.org/2000/svg" viewBox="0 0 794 242"><path d="M94.2 233H7l43.4-75.3h87.1M181 233h87l-43.5-75.3h-86.9M181 82.4 137.7 7.1 94.2 82.4l43.4 75.3" fill="red"/><path d="M307 201h35v-12.6h-35v-15.6h39.3v-12.6h-54V233h55v-12.6H307M306 93.9l15.5 54.1h14.2L351.1 94V148H365V75.2h-21.1l-15.2 51.1-15.2-51.1h-21.1V148H306M626.7 148h14.7V75.2h-14.7V148zM638.6 233h14.7v-72.8h-14.7V233zM771.9 148h14.7V75.2H772V148zM370.6 148h14.7V75.2h-14.7V148zM751.5 103.6h-29.2V75.2h-14.5V148h14.5v-31.8h29.2V148h14.2V75.2h-14.3M407.2 148h15V87.8h17.6V75.2h-50.5v12.6h17.9M541 233h14.9v-60.2h18v-12.6h-50.6v12.6H541M531 150c18.7 0 29-8.4 29-24.7V75.2h-14.7v51.4c0 6.3-5.3 11.5-14.2 11.5-11.3 0-14.5-6.2-14.5-11.5V75.2h-14.3v50c0 17.6 10.8 24.9 28.8 24.9M420 201h34.8v-12.6H420v-15.6h39v-12.6h-53.8V233h55v-12.6H420M598.2 86.7a9 9 0 0 1 8.5 8.7 9.1 9.1 0 0 1-9.5 9.1h-17.4V86.8h18.4zM597 137h-17.2v-21.1h17c6.2 0 11.3 3.5 11.3 10.6 0 6-4.7 10.5-11 10.5m-16.9 11h21.2c13.8 0 21.8-8.2 21.8-19.7a20 20 0 0 0-14-19c6.4-1.6 11.5-8.2 11.5-16.2 0-10.7-7.8-18-22.5-18h-32.9v73M592.2 192.5v-19.8h17.7c6 0 9.9 4.2 9.9 10 0 4-3.5 9.8-9.4 9.8h-18.2zm29.2 5.6a17.8 17.8 0 0 0 12.9-17.6c0-13-8.8-20.4-23.7-20.4h-33.3v72.8h14.9v-28.7h12.4c7.6 0 11.7 4 12.9 9.1 1.4 5.8 1.1 14.3 2.5 19.6h15a129 129 0 0 1-2.8-19.1c-.5-9.9-5.8-13.8-10.8-15.7M366.7 160.2H352V233h49v-12.6h-34.3M464.6 117.2c11.8 2 18.4 4.3 18.4 11.3 0 4.8-4.6 9.3-14.5 9.3s-14.9-5.5-14.9-12.2h-14c0 12.7 8.3 24.3 29.6 24.3 20.3 0 29.2-10.8 29.2-23 0-11.6-7.5-18.9-20.9-21.5-13-2.6-21.8-3-21.8-11.3 0-5.6 5-9 13-9 8.4 0 13.2 4.2 13.2 11.2H496c0-11.5-8.7-23.3-28-23.3-13.3 0-27.1 7.7-27.1 22 0 12.2 8.7 19.6 23.7 22.2M669.9 117.2c12 2 18.6 4.3 18.6 11.3 0 4.8-4.8 9.3-14.5 9.3-9.9 0-15-5.5-15-12.2h-14c0 12.7 8 24.3 29.7 24.3 20.2 0 29.2-10.8 29.2-23 0-11.6-7.6-18.9-21.2-21.5-12.8-2.6-21.8-3-21.8-11.3 0-5.6 5.3-9 13.1-9 8.5 0 13.3 4.2 13.3 11.2h14.3c0-11.5-8.8-23.3-28-23.3-13.4 0-27.4 7.7-27.4 22 0 12.2 9 19.6 23.7 22.2" /><path d="M493.4 221.8c-11.7 0-18.6-11.7-18.6-25.5 0-13.9 6.6-25.5 18.6-25.5 9.2 0 13.8 5.6 15.6 12.5h15.4c-2.5-14.3-13.6-24.9-31.3-24.9-22.3 0-33.7 17-33.7 38 0 21.1 12 38.2 33.7 38.2 17.5 0 29.2-10.2 31.3-25.7H509c-1.8 7.3-6.7 12.9-15.6 12.9M691 221.8c-12 0-18.8-11.7-18.8-25.5 0-13.9 6.6-25.5 18.8-25.5 9 0 13.6 5.6 15.6 12.5h15.2c-2.5-14.3-13.6-24.9-31.3-24.9-22.2 0-33.5 17-33.5 38 0 21.1 11.7 38.2 33.5 38.2 17.5 0 29.2-10.2 31.5-25.7h-15.4c-2 7.3-6.9 12.9-15.6 12.9" /></svg>