<svg xmlns="http://www.w3.org/2000/svg" xml:space="preserve" version="1.0" viewBox="0 0 800 122"><path fill="#e61e1e" d="M765 120h35L764 2h-49l-35 118h34l6-22h39l6 22m-37-48 12-41 12 41h-24zm-556 50c36 0 53-6 56-38a302 302 0 0 0 0-46c-3-32-20-38-56-38s-52 6-55 38a297 297 0 0 0 0 46c3 32 20 38 55 38m-22-61V48c1-18 9-20 22-20 14 0 22 2 22 20a243 243 0 0 1 0 26c0 18-8 20-22 20-13 0-21-2-22-20V61zM0 2v30h35v88h35V32h36V2H0m540 118V2h-34v118h34M406 45V2h-34v118h34V74h38v46h33V2h-33v43h-38m244 13c14-3 19-12 19-25 0-26-16-31-40-31h-60v118h63c29 0 39-13 39-32 0-13-3-25-21-30m-47 13h23c9 0 11 5 11 11 0 7-4 11-11 11h-23V71zm0-42h23c6 0 9 3 9 10 0 6-3 9-9 9h-23V29zM248 81h31c0 6 1 10 4 12s6 3 15 3 19 0 19-11c0-9-6-11-16-11-25-2-34-2-43-9-7-5-10-14-10-27 0-21 7-29 18-34s54-5 66 0c15 7 15 21 15 35h-31c0-7-2-9-3-10-4-3-8-4-15-4-8 0-18 1-18 11 0 7 4 10 12 11 12 1 35 1 44 6 11 7 14 16 14 32 0 22-8 28-18 33-13 5-55 5-69-1-15-6-15-20-15-36"/></svg>