<svg xmlns="http://www.w3.org/2000/svg" viewBox="0 -1 1308 455"><style>.s0{fill:currentColor}.s1{fill:#00539d}</style><g id="Layer 1"><g id="lt;Group&gt;"><path id="lt;Compound Path&gt;" d="M517 158c0-94 64-133 126-133s126 39 126 133c0 93-64 132-126 132s-126-39-126-132zm183 0c0-47-21-76-57-76s-57 29-57 76c1 47 21 77 57 77s57-30 57-77z" class="s0"/><path d="M788 286V30h100c65 0 105 21 105 83 0 40-17 63-50 75l59 97h-73l-55-88h-19v88zm68-142h29c29 0 41-8 41-29 0-22-12-29-41-29h-29zM1018 286V30h70v89l70-89h80l-86 101 94 155h-78l-61-103-19 25v77z" class="s0"/><path id="lt;Path&gt;" d="M545 30h-79l-45 79-45-79h-79l89 149v106h69V180l90-149z" class="s0"/><path d="M1250 49c0-14 11-24 24-24 14 0 24 10 24 24 0 13-11 24-24 24-14 0-24-11-24-24zm43 0c0-11-8-20-19-20s-19 9-19 20 8 19 19 19 19-8 19-19zm-29-14h11c6 0 10 3 10 9 0 4-2 6-5 7l5 10h-6l-5-9h-3v9h-6zm10 13c3 0 5-1 5-4 0-2-2-3-5-3h-3v7z" class="s0"/><path d="M10 104zM51 98l8-10-26-35 15-11 25 35 13-4V30H10v55zM45 122v-6l-35-12v36l35-11v-7z" class="s1"/><path d="M104 30v19l21-12 7 13-28 16v40l35-20V54h15v24l17-10 9 16-17 10 21 11-8 13-27-16-36 20 36 21 27-17 8 13-21 12 17 10-9 15-17-9v23h-14v-32l-36-20v41l28 16-7 12-21-12v20H86v-43l-12-4-26 35-15-11 26-35-8-11-41 14v126h256V30z" class="s1"/><path d="M86 153V92c-13 4-23 16-23 30 0 15 10 27 23 31zM104 30H86zM10 140v19zM10 104V85v19zM10 104z" class="s1"/><path d="M1293 341H9v-13h1284zM483 428v-67h42v15h-24v12h22v15h-22v25zM571 428l-4-14h-23l-4 14h-19l22-67h25l23 67zm-16-52-6 23h14zM637 386c-2-7-6-11-12-11-9 0-14 8-14 20s5 19 14 19c6 0 9-4 11-10h20c-4 16-15 25-31 25-20 0-33-13-33-34 0-22 13-35 33-35 16 0 28 10 31 26zM678 428v-52h-18v-15h55v15h-18v52zM718 395c0-22 13-35 34-35 20 0 33 13 33 35 1 21-13 34-33 34-21 0-34-13-34-34zm49 0c0-12-5-20-15-20s-15 8-15 20 5 19 15 19 15-7 15-19zM832 428l-11-23h-7v23h-19v-67h26c17 0 28 8 28 22 0 9-4 15-11 19l14 26zm-12-37c6 0 10-3 10-8s-4-7-10-7h-6v15zM872 428v-24l-24-43h20l13 29 14-29h19l-24 43v24zM952 428v-67h25c23 0 37 14 37 33 0 18-14 34-36 34zm25-15c12 0 18-8 18-19s-6-18-18-18h-7v37zM1023 428v-67h19v67zM1091 428l-12-23h-6v23h-19v-67h26c17 0 28 8 28 22 0 9-4 15-11 19l13 26zm-12-37c6 0 10-3 10-8s-4-7-10-7h-6v15zM1118 428v-67h42v15h-24v11h22v14h-22v12h26v15zM1212 386c-2-7-6-11-11-11-10 0-15 8-15 20s5 19 15 19c5 0 9-4 11-10h19c-4 16-15 25-30 25-21 0-34-13-34-34 0-22 13-35 34-35 16 0 27 10 30 26zM1256 428v-52h-19v-15h55v15h-18v52z" class="s0"/></g></g></svg>