<svg xmlns="http://www.w3.org/2000/svg" viewBox="0 0 1000 332"><path d="M999.4 79c13.6 78.1-199 180.4-474.8 228.4S14.2 331 .6 253C-13 174.9 199.6 72.7 475.4 24.6c275.8-48 510.4-23.6 524 54.5Z" fill="#034ea2"/><path d="m739.4 194.4-1.1-80.1h25.2v102.1h-36.2L702 131.8h-1.1l1.1 84.6h-25.3V114.3h38.5l24.2 80.1zM274.6 123l-14.2 94.5h-27.5l18.7-103.2h46.1l18.7 103.2h-27.5L274.6 123zM381.2 217.5l-16.5-93.4h-1v93.4h-26.4l2.2-103.2h42.8l12.1 79h1l12.2-79h42.8l2.2 103.2h-26.3v-93.4h-1.1l-17.6 93.4zM188.9 188c1 2.5.7 5.7.2 7.7-.8 3.4-3.2 6.9-10 6.9-6.5 0-10.5-3.7-10.5-9.4v-10H141v8c0 23 18.1 30 37.6 30 18.7 0 34-6.4 36.5-23.6 1.3-9 .3-14.8 0-17-4.4-21.6-43.7-28.1-46.6-40.2-.5-2-.4-4.3-.1-5.5.7-3.2 3-6.9 9.4-6.9 6 0 9.6 3.8 9.6 9.4v6.4h25.8v-7.3c0-22.5-20.2-26-34.8-26-18.4 0-33.4 6-36.2 22.9a36 36 0 0 0 .2 14c4.6 21 41.3 27.2 46.6 40.6zM525 187.8c1.1 2.5.8 5.6.3 7.6-.8 3.4-3.1 6.8-10 6.8-6.4 0-10.3-3.7-10.3-9.2v-10h-27.4v8c0 22.8 18 29.7 37.2 29.7 18.5 0 33.7-6.3 36.1-23.4 1.3-8.9.4-14.7 0-16.8-4.4-21.5-43.2-27.9-46.1-39.8a13 13 0 0 1-.1-5.4c.7-3.3 3-6.9 9.3-6.9 6 0 9.5 3.7 9.5 9.3v6.3h25.6v-7.2c0-22.3-20-25.7-34.6-25.7-18.1 0-33 6-35.7 22.7-.8 4.5-.9 8.6.2 13.8 4.5 20.9 40.8 27 46 40.2zM612 201.7c7.1 0 9.3-5 9.8-7.5.2-1.1.3-2.6.3-4v-76.5h26.1V188l-.2 6.8c-1.8 19.3-17 25.5-36 25.5-19.1 0-34.4-6.2-36.2-25.5 0-1-.3-5-.2-6.8v-74.2h26.1v76.5c0 1.4 0 2.9.3 4 .5 2.5 2.7 7.5 10 7.5zM827.6 200.6c7.5 0 10.1-4.7 10.6-7.5.2-1.2.2-2.6.2-4v-15h-10.6v-15h36.7v27.7c0 2 0 3.4-.4 6.8-1.7 18.8-18 25.6-36.4 25.6-18.3 0-34.6-6.8-36.4-25.6-.3-3.4-.3-4.8-.3-6.8v-43.5c0-1.8.2-5.1.4-6.8 2.3-19.3 18-25.6 36.3-25.6 18.4 0 34.4 6.2 36.3 25.6.4 3.3.3 6.8.3 6.8v3.4h-26.1V141s0-2.4-.4-3.9c-.4-2.3-2.4-7.5-10.3-7.5-7.5 0-9.7 5-10.3 7.5-.3 1.4-.4 3.2-.4 4.9v47.3c0 1.3 0 2.7.3 4 .4 2.7 3 7.4 10.5 7.4z" fill="#fff"/></svg>