<svg xmlns="http://www.w3.org/2000/svg" viewBox="629.86 384.14 1098.95 1588.23"><path fill="currentColor" d="M1208.625 394.188c11.313 9.25 16.617 20.226 18.197 34.574.716 8.993.391 18.084.338 27.097l-.016 7.202c-.013 6.28-.037 12.559-.065 18.838-.043 10.092-.073 20.184-.096 30.277-.01 3.526-.027 7.052-.045 10.578l-.02 6.425-.02 2.987-.005 2.701-.01 2.36c-.077 1.799-.077 1.799 1.117 2.773 1.363.227 2.735.397 4.11.543 59.613 6.766 118.362 28.43 167.89 62.457l2.159 1.48c14.61 10.07 28.535 20.777 41.841 32.52l2.227 1.957c6.298 5.595 12.333 11.416 18.287 17.372 1.545 1.543 3.098 3.078 4.652 4.612 6.398 6.363 12.206 12.995 17.834 20.059a688.794 688.794 0 006.563 7.688l1.61 1.873c1.275 1.48 2.55 2.96 3.827 4.439 7.178-3.741 14.049-7.86 20.883-12.185A308.893 308.893 0 011533 675c5.09-2.87 10.06-5.878 15-9 5.94-3.754 11.968-7.286 18.098-10.727 3.994-2.286 7.868-4.753 11.757-7.212 15.698-9.907 29.546-16.807 48.63-13.448 11.667 3.168 21.626 10.429 28.515 20.387 6.887 13.14 8.642 25.382 5.031 39.727-4.794 15.217-15.267 23.292-28.586 30.864-5.025 2.896-9.977 5.916-14.945 8.909l-6.578 3.945a3642.56 3642.56 0 00-9.844 5.922 1092.77 1092.77 0 01-16.108 9.557c-2.555 1.482-5.108 2.968-7.66 4.453-1.264.734-2.529 1.465-3.795 2.194A309.675 309.675 0 001547 777c1.194 3.69 2.485 7.268 4.031 10.824 17.924 42.248 28.963 90.603 29.172 136.555l.022 3.157c.227 43.088.227 43.088-3.225 63.464-.24 1.455-.478 2.91-.716 4.365-5.34 32.256-11.955 65.8-26.344 95.377-1.132 2.312-1.132 2.312-.94 5.258 2.614 1.76 5.183 3.297 7.938 4.813l2.561 1.446c2.827 1.592 5.664 3.167 8.501 4.741 3.02 1.686 6.04 3.375 9.06 5.063a6415.41 6415.41 0 006.318 3.53c10.303 5.76 20.5 11.694 30.671 17.682a964.518 964.518 0 008.994 5.178c16.054 9.203 29.552 17.626 34.895 36.547 2.751 13.225.83 25.067-6.063 36.75-6.408 9.353-14.244 15.41-24.875 19.25l-1.98.742c-12.747 3.968-25.92.972-37.438-4.965-5.26-2.81-10.425-5.781-15.582-8.777l-2.907-1.684a3545.152 3545.152 0 01-15.152-8.843 1420.645 1420.645 0 00-18.97-10.903 572.125 572.125 0 01-14.475-8.5l-3.309-1.988a590.447 590.447 0 01-6.37-3.89l-2.915-1.747-2.578-1.577c-2.282-1.123-2.282-1.123-4.482-.196-2.859 2.061-4.766 4.837-6.842 7.64-4.709 6.184-9.742 11.911-15.078 17.555-2.13 2.254-4.17 4.567-6.192 6.918-4.18 4.803-8.656 9.288-13.168 13.777l-2.447 2.46A270.23 270.23 0 011442 1241c-1.084.96-2.166 1.923-3.246 2.887-8.164 7.202-16.749 13.53-25.714 19.695-2.511 1.746-4.979 3.547-7.447 5.354-48.784 35.541-107.147 56.074-166.333 65.251l-2.26.352c-2.03.313-4.06.619-6.09.924-2.793.231-2.793.231-3.91 1.537a60.859 60.859 0 00-.107 4.216l.005 2.756.02 3.049.01 3.193c.007 2.299.016 4.598.027 6.896.018 3.646.028 7.291.036 10.936.025 10.37.06 20.738.105 31.107a7573.1 7573.1 0 01.055 19.007c.006 2.41.016 4.82.03 7.23.02 3.389.026 6.777.03 10.166l.027 2.981c-.022 15.782-3.658 28.594-14.746 40.205-10.587 9.591-22.19 13.644-36.34 13.469-13.025-.872-24.474-7.631-33.152-17.211-7.856-10.907-10.476-21.711-10.34-34.989l-.002-3.463c.002-3.739.025-7.477.049-11.216.006-2.607.01-5.215.013-7.822.01-6.138.034-12.275.064-18.412.034-6.994.05-13.988.065-20.982.031-14.372.084-28.744.151-43.116l-3.043-.184-4.033-.255-3.98-.247c-5.887-.469-11.642-1.428-17.444-2.502l-3.67-.675c-30.569-5.782-60.005-15.818-88.192-28.917a399.551 399.551 0 00-7.115-3.197c-42.594-18.96-80.488-49.012-113.336-81.71l-2.137-2.124c-4.554-4.567-8.858-9.29-13.05-14.189l-1.464-1.685c-5.943-6.841-11.49-13.773-16.536-21.315-6.572 2.454-12.61 5.273-18.625 8.875l-2.426 1.428a2033.821 2033.821 0 00-5.201 3.072c-4.862 2.875-9.743 5.717-14.623 8.563l-3.061 1.787a2721.162 2721.162 0 01-27.676 15.914 1262.266 1262.266 0 00-6.9 3.966c-15.476 8.904-28.633 14.544-46.738 9.77-12.723-4.094-22.206-11.332-28.625-23.25-5.93-13.073-6.432-24.572-2.125-38.125 6.816-17.986 23.163-26.303 39.16-34.836 5.646-3.027 11.157-6.249 16.653-9.539 7.968-4.763 16.011-9.364 24.125-13.875 9.13-5.077 18.161-10.28 27.062-15.75-.576-6.182-3.172-11.474-5.563-17.125-12.857-31.34-18.72-64.5-23.437-97.875l-.411-2.827c-8.62-61.514.614-140.934 29.848-195.923 1.694-2.942 1.694-2.942 1.594-5.2-1.663-3.308-4.798-4.478-7.968-6.112-1.47-.792-2.94-1.586-4.407-2.383l-2.324-1.26c-3.828-2.127-7.546-4.427-11.27-6.732a975.524 975.524 0 00-19.531-11.725c-6.34-3.713-12.634-7.499-18.924-11.296a711.754 711.754 0 00-15.317-8.943c-14.6-8.318-28.412-17.328-33.364-34.275C695.932 681.84 697.06 668.387 703 657c6.722-10.61 16.19-17.828 28-22 20.795-4.418 35.758 3.83 52.82 14.469 6.69 4.101 13.541 7.938 20.364 11.812a373.667 373.667 0 0118.434 11.273c6.723 4.355 13.641 8.366 20.57 12.384 1.944 1.13 3.887 2.262 5.83 3.394 1.733 1.01 3.467 2.016 5.201 3.023A126.419 126.419 0 01860 695c4.582-4.994 9.068-10.027 13.313-15.313 8.181-10.052 17.182-19.284 26.304-28.48 1.403-1.414 2.803-2.834 4.202-4.253a200.578 200.578 0 0116.75-15.006 149.34 149.34 0 005.646-4.741c9.352-8.225 19.478-15.236 29.785-22.207l2.204-1.501c11.813-8.006 24.16-14.883 36.796-21.499l3.132-1.65c15.25-7.993 30.567-14.811 46.868-20.35l3.727-1.27c15.889-5.384 31.81-10.397 48.273-13.73l2.792-.57a818.47 818.47 0 018.646-1.68l2.58-.496c5.101-.918 10.149-1.454 15.322-1.804l3.789-.26L1133 540l-.008-1.762c-.067-14.2-.116-28.4-.147-42.599-.016-6.867-.037-13.734-.071-20.6-.034-6.633-.05-13.266-.059-19.9-.005-2.524-.016-5.048-.032-7.573-.022-3.549-.025-7.098-.024-10.647l-.032-3.128c.058-13.942 3.95-25.239 13.498-35.478 18.338-17.356 42.343-18.81 62.5-4.125zM1150 645l-1 56c-8.982-4.491-8.982-4.491-13.328-7.066l-2.895-1.706-3.027-1.79c-8.696-5.116-17.447-10.1-26.33-14.886-4.298-2.328-8.401-4.766-12.42-7.552-3.24 1.35-4.632 2.506-6.262 5.605-.392.73-.785 1.46-1.19 2.21-.407.784-.815 1.566-1.236 2.372-.875 1.633-1.752 3.265-2.632 4.895l-1.341 2.49c-2.375 4.306-4.954 8.486-7.558 12.655-1.767 2.874-3.243 5.413-3.781 8.773l2.973 1.652c6.797 3.793 13.56 7.623 20.215 11.66 6.046 3.667 12.164 7.194 18.312 10.688 15.025 8.545 15.025 8.545 21.576 12.735a36.359 36.359 0 007.842 3.647c4.517 1.693 8.23 3.62 11.082 7.618 2.706 8.452 1.926 17.784 1.723 26.558-.066 3.535-.047 7.07-.036 10.606.006 6.684-.064 13.365-.161 20.048-.108 7.613-.13 15.225-.144 22.84A4151.32 4151.32 0 011150 882l-9.04-5.231-2.56-1.48a3866.043 3866.043 0 01-21.588-12.601c-2.51-1.474-5.02-2.946-7.53-4.418l-1.875-1.1A9188.977 9188.977 0 001078 840l-3.4-1.98c-3.49-2.032-6.982-4.057-10.475-6.082l-3.223-1.878c-9.914-6.7-9.914-6.7-20.902-10.06l.076-2.058c.802-22.517 1.163-45.04 1.486-67.567l.034-2.34c.139-9.678.272-19.356.404-29.035l-45-1-1 74c-6.4-3.491-12.745-6.963-19-10.688a1837.262 1837.262 0 00-21.404-12.469l-2.256-1.3-2.188-1.252a84.81 84.81 0 01-4.347-2.796l-2.114-1.444-1.865-1.335c-1.828-.92-1.828-.92-3.822-.218-2.788 2.09-4.04 4.454-5.762 7.479l-1.046 1.812a882.55 882.55 0 00-3.321 5.836 3428.33 3428.33 0 01-4.563 7.941l-1.127 1.965a267.47 267.47 0 01-10.58 16.9c-2.076 3.04-2.076 3.04-2.432 6.586 1.07 2.564 2.172 3.191 4.561 4.577l2.399 1.415 2.617 1.491 2.695 1.575c2.844 1.656 5.698 3.292 8.555 4.925l5.578 3.207a2364.15 2364.15 0 0019.41 11.031l3.324 1.887 2.801 1.57L964 842v2a127.17 127.17 0 01-7.125 4.313 7580.57 7580.57 0 00-4.703 2.71l-2.545 1.46c-5.458 3.152-10.866 6.389-16.285 9.608a684.497 684.497 0 01-13.897 8.042l-2.653 1.498a500.143 500.143 0 01-4.979 2.767l-2.235 1.262-1.956 1.082c-2.002 1.553-2.782 2.878-3.622 5.258 1.088 2.59 1.088 2.59 3.063 5.313a492.784 492.784 0 012.222 3.406l1.282 1.98c2.974 4.775 5.682 9.708 8.433 14.614l1.781 3.167c1.409 2.505 2.815 5.012 4.219 7.52 5.131-1.468 9.29-3.757 13.813-6.5l4.597-2.746 2.34-1.406c3.322-1.99 6.66-3.95 10-5.91l2.013-1.185c4.798-2.823 9.601-5.639 14.405-8.452l1.928-1.13c3.192-1.87 6.384-3.739 9.577-5.607a1596.118 1596.118 0 0018.304-10.852c7.228-4.33 7.228-4.33 9.915-3.931 2.374.81 4.317 1.874 6.467 3.168l2.596 1.55 2.795 1.688 5.96 3.56c1.033.616 2.065 1.234 3.129 1.87a1939.53 1939.53 0 0015.536 9.133l3.061 1.787c6.32 3.68 12.673 7.294 19.062 10.854 4.198 2.349 8.33 4.795 12.44 7.297 8.097 4.928 16.386 9.513 24.671 14.115l3.157 1.756 2.837 1.572c5.28 3.015 5.28 3.015 6.397 6.369l-1.988.707c-3.93 1.687-7.518 3.812-11.2 5.98l-5.136 2.997-2.779 1.624c-14.279 8.34-28.61 16.574-43.084 24.567-7.063 3.9-14.106 7.809-21 12L1028 987l-2.082 1.26a645.501 645.501 0 01-6.543 3.865l-2.012 1.222c-2.658 1.535-4.738 2.65-7.843 2.669-3.623-1.46-6.876-3.362-10.207-5.391l-2.282-1.365c-5.768-3.464-11.5-6.988-17.232-10.513-9.333-5.722-18.767-11.276-28.192-16.846l-3.97-2.35-1.946-1.151c-5.418-3.215-10.77-6.53-16.106-9.88-2.565-1.63-2.565-1.63-5.585-2.52l-1.617 3.156a331.118 331.118 0 01-15.317 26.551c-3.19 4.808-3.19 4.808-4.066 10.293l3.41 1.871A799.485 799.485 0 01936 1005c3.476 2.109 6.956 4.212 10.438 6.313l2.51 1.526c3.8 2.293 7.568 4.443 11.587 6.329C964 1021 964 1021 965 1024l-2.082.77c-3.346 1.41-6.458 3.12-9.606 4.918l-2.025 1.147c-8.046 4.571-16.054 9.21-24.061 13.847-6.044 3.498-12.106 6.956-18.226 10.318 1.688 6.13 4.777 11.46 7.813 17l1.72 3.162c5.902 10.763 12.134 21.325 18.467 31.838 7.417-3.528 14.425-7.427 21.379-11.793 4.898-3.03 9.958-5.771 15.005-8.546a528.08 528.08 0 0016.33-9.384C992 1076 992 1076 995 1075v72h44v-99l5-2a155.515 155.515 0 004.746-2.582l2.753-1.555 2.938-1.676 3.073-1.743c7.906-4.501 15.74-9.118 23.557-13.77 6.427-3.815 12.92-7.484 19.469-11.084a529.555 529.555 0 0014.651-8.403c7.02-4.16 14.09-8.224 21.188-12.25l3.048-1.735 2.85-1.612 2.545-1.442C1147 987 1147 987 1150 986v128l-6 2a112.55 112.55 0 00-5.027 2.582l-2.863 1.554-3.047 1.677c-1.062.578-2.123 1.157-3.216 1.754-8.007 4.383-15.95 8.873-23.88 13.395-9.124 5.18-18.375 10.117-27.654 15.014l-3.41 1.81-3.017 1.59c-3.083 1.735-5.966 3.627-8.886 5.624 4.537 9.567 9.506 18.81 14.875 27.938l1.731 2.96 1.636 2.754 1.465 2.469c1.164 2.016 1.164 2.016 3.293 2.879 2.208-.95 2.208-.95 4.664-2.43l2.876-1.647 3.085-1.798 6.336-3.64 3.14-1.815a929.495 929.495 0 0111.149-6.295c6.804-3.811 13.551-7.72 20.282-11.659l2.288-1.333 2.009-1.175c2.677-1.49 5.43-2.838 8.171-4.208v66h59l1-66 14 8a2760.5 2760.5 0 007.125 4 2008.457 2008.457 0 0115.977 9.059l1.898 1.086a92692.44 92692.44 0 0013.046 7.476l3.183 1.826L1268 1197l2.122 1.274c1.86.858 1.86.858 3.925.673 2.88-1.396 3.673-3.305 5.195-6.092.592-1.07 1.184-2.14 1.793-3.244l1.84-3.424 1.816-3.294c3.95-7.21 7.684-14.516 11.309-21.893a426.924 426.924 0 00-20.188-11.563c-8.64-4.678-17.203-9.479-25.738-14.347a691.357 691.357 0 00-16.644-9.14l-1.938-1.031a1852.48 1852.48 0 00-9.442-4.983l-3.44-1.819-3.064-1.606c-2.366-1.404-3.857-2.372-5.546-4.511-.37-2.337-.37-2.337-.36-5.144l-.013-3.225.032-3.538v-3.725c0-3.372.016-6.744.037-10.115.019-3.524.02-7.047.024-10.57.01-6.673.034-13.345.064-20.017.033-7.596.05-15.192.065-22.788.031-15.626.084-31.252.151-46.878 1.925.956 3.85 1.913 5.774 2.871l3.249 1.615c3.353 1.705 6.525 3.539 9.727 5.514 1.269.774 2.538 1.546 3.809 2.316l2.105 1.278a1136.553 1136.553 0 0037.971 21.865c5.591 3.086 11.096 6.3 16.585 9.561 7.393 4.377 14.883 8.58 22.378 12.778l2.87 1.612 2.577 1.442C1319 1048 1319 1048 1320 1049c.095 3.044.126 6.065.114 9.11v2.897c0 3.176-.009 6.352-.016 9.528l-.005 6.587c-.003 5.792-.013 11.584-.024 17.376-.012 6.942-.017 13.885-.023 20.827-.01 10.558-.029 21.117-.046 31.675h44l1-72 14 8c5.642 3.13 11.287 6.251 16.943 9.355 9.378 5.18 9.378 5.18 13.65 7.93l1.776 1.136a538.57 538.57 0 014.869 3.19c2.58 1.578 2.58 1.578 4.997 1.296 3.208-1.649 4.575-5.04 6.265-8.094l1.286-2.257c1.422-2.51 2.82-5.03 4.214-7.556l1.553-2.799c5.34-9.642 10.58-19.31 15.447-29.201-2.275-2.502-4.567-4.011-7.543-5.602l-2.73-1.471-2.915-1.552-6.015-3.246-2.994-1.613c-9.184-4.968-18.254-10.137-27.24-15.454-.97-.566-.97-.566-1.957-1.145-4.489-2.683-4.489-2.683-5.606-4.917l2.12-.29c3.432-.846 5.93-2.269 8.974-4.07l1.758-1.032c1.887-1.112 3.768-2.235 5.648-3.358l3.913-2.315c10.955-6.495 21.802-13.162 32.587-19.935l4.574-2.86 1.999-1.248c.47-.295.942-.589 1.427-.892-1.377-4.664-3.36-8.673-5.844-12.824l-1.12-1.903c-1.174-1.99-2.355-3.975-3.536-5.96l-2.379-4.034c-3.94-6.714-3.94-6.714-8.121-13.279-4.824.535-8.314 2.82-12.313 5.375-8.1 5.068-16.29 9.965-24.52 14.82-9.74 5.749-19.45 11.523-28.98 17.617-9.728 6.198-9.728 6.198-14.562 9l-2.398 1.395c-2.932 1.044-4.271.767-7.227-.207a123.353 123.353 0 01-6.938-3.75l-2.096-1.199c-6.725-3.864-13.377-7.853-20.04-11.82-8.122-4.811-16.36-9.396-24.626-13.953-6.479-3.573-12.927-7.166-19.237-11.028-6.665-4.076-13.488-7.828-20.365-11.534l-2.46-1.333-2.186-1.175C1245 938 1245 938 1242.86 936.35c-1.747-1.547-1.747-1.547-3.86-1.351 1.225-3.675 2.08-3.898 5.39-5.715l2.81-1.562 3.05-1.66 6.32-3.508 3.251-1.794c4.79-2.653 9.55-5.357 14.304-8.073l2.664-1.52c4.58-2.624 9.11-5.305 13.586-8.106 5.834-3.647 11.81-7.011 17.813-10.375a678.077 678.077 0 0026-15.347l1.94-1.188c1.247-.767 2.484-1.55 3.712-2.347 3.913-2.441 6.568-3.521 11.16-2.805a68.595 68.595 0 017.063 3.5l2.004 1.107c5.118 2.855 10.103 5.911 15.07 9.022 5.982 3.71 12.103 7.189 18.192 10.718a996.658 996.658 0 0116.57 9.821l3.409 2.066c2.167 1.317 4.332 2.64 6.494 3.967l2.987 1.815 2.616 1.602c2.796 1.489 5.57 2.462 8.595 3.382l.851-1.566c6.502-11.944 13.177-23.758 20.149-35.434-3.902-4.33-7.93-6.864-13.063-9.563-7.706-4.16-15.234-8.556-22.72-13.1-3.778-2.287-7.558-4.552-11.416-6.7l-1.93-1.076a802.747 802.747 0 00-5.023-2.745c-3.064-1.954-5.377-4.163-7.848-6.816l2.598-.266c3.944-.85 6.432-2.326 9.84-4.484 7.595-4.728 15.358-9.12 23.177-13.468 4.897-2.741 9.744-5.553 14.526-8.493l2.75-1.689c2.39-1.5 2.39-1.5 3.109-4.6-.948-2.374-.948-2.374-2.473-4.906l-1.692-2.969L1443 797l-1.792-3.063a1242.95 1242.95 0 00-5.646-9.437l-1.908-3.184a1063.747 1063.747 0 00-3.782-6.242 425.642 425.642 0 01-3.763-6.304l-1.832-3.051-1.621-2.752L1421 761c-4.35 0-5.585.64-9.234 2.79l-3.146 1.834-3.37 2.001c-1.155.678-2.311 1.354-3.467 2.03a2224.292 2224.292 0 00-7.177 4.219 3146.082 3146.082 0 01-13.814 8.09 3238.335 3238.335 0 00-6.225 3.642l-2.84 1.664c-.82.48-1.639.96-2.482 1.456-2.044 1.16-4.143 2.223-6.245 3.274l-1-74-44 1v100l-22 12c-7.35 4.377-7.35 4.377-14.672 8.8-6.055 3.66-12.191 7.179-18.328 10.7-7.883 4.525-15.725 9.104-23.5 13.813a632.386 632.386 0 01-19.563 11.375l-2.292 1.28c-2.853 1.575-5.547 3-8.645 4.032.107-16.116.22-32.232.34-48.347.055-7.483.108-14.966.157-22.448.043-6.521.09-13.042.14-19.563.026-3.453.051-6.907.072-10.36.023-3.853.054-7.706.086-11.559l.017-3.48.03-3.175.02-2.762C1210 757 1210 757 1211 754c2.12-1.495 2.12-1.495 4.941-3.082l3.173-1.804 3.448-1.927c1.178-.666 2.355-1.333 3.53-2.002a2754.94 2754.94 0 015.456-3.093c6.103-3.45 12.154-6.985 18.202-10.53 7.26-4.244 14.537-8.452 21.848-12.609 6.836-3.924 13.616-7.944 20.402-11.953-2.614-7.194-5.899-13.573-9.938-20.063a3391.504 3391.504 0 01-3.09-5.035l-1.499-2.445c-2.257-3.765-4.376-7.602-6.473-11.457-3.062.633-5.41 1.657-8.105 3.23l-2.445 1.414c-.87.51-1.74 1.019-2.638 1.543a3949.846 3949.846 0 01-5.652 3.27l-3.019 1.745a879.572 879.572 0 01-9.77 5.497l-3.341 1.857a2840.309 2840.309 0 01-6.414 3.546c-5.432 3.02-10.672 6.159-15.767 9.72C1212 701 1212 701 1209 702v-57h-59zm65.95 953.87l3.867-.009 4.226.006a4522.782 4522.782 0 0113.462.002c3.86.006 7.72.003 11.581-.003 2.994-.004 5.987-.002 8.98 0 1.42 0 2.841 0 4.261-.002 20.274-.027 20.274-.027 27.673 1.136 1.359 2.717 1.078 4.786 1.022 7.827l-.061 3.7-.082 4.012-.072 4.094c-.063 3.594-.132 7.188-.202 10.782-.07 3.666-.135 7.333-.2 11-.13 7.194-.265 14.39-.405 21.585l3.068-.007c9.521-.02 19.042-.035 28.563-.045 4.896-.005 9.791-.012 14.687-.023 4.72-.011 9.44-.017 14.16-.02 1.805-.002 3.61-.005 5.415-.01 2.52-.008 5.039-.009 7.558-.009l2.284-.01c5.15.01 5.15.01 6.265 1.124.089 1.923.107 3.849.098 5.773l-.01 3.742-.013 2.012c-.013 2.071-.02 4.143-.024 6.214-.013 5.147-.038 10.293-.061 15.44-.02 4.344-.036 8.688-.046 13.033-.006 2.044-.019 4.088-.032 6.132l-.01 3.751-.016 3.315c-.063 2.574-.063 2.574 1.114 4.588l1.04-1.879c5.043-8.535 11.435-15.368 18.325-22.44a365.302 365.302 0 004.12-4.322c9.702-10.127 21.356-17.55 33.515-24.359l1.874-1.06c15.766-8.78 33.318-14.19 51.126-16.94l3.484-.555c17.257-2.067 36.644-1.697 53.516 2.555l2.584.65c24.451 6.318 47.537 16.844 66.174 34.26a123.184 123.184 0 005.93 5.152c3.86 3.293 7.078 7.039 10.312 10.938l1.867 2.207c4.026 4.874 7.715 9.938 11.258 15.168l1.198 1.744c7.47 11.22 11.914 23.487 16.396 36.103 1.754 4.938 3.532 9.867 5.308 14.798l1.052 2.924a855.948 855.948 0 008.234 21.868c3.74 9.578 7.215 19.237 10.617 28.94 3.854 10.981 7.92 21.874 12.07 32.748 4.41 11.558 8.712 23.142 12.813 34.812 3.188 9.074 6.422 18.125 9.812 27.125l1.08 2.873a2634.771 2634.771 0 005.889 15.436l1.282 3.36c.817 2.138 1.64 4.274 2.47 6.407l1.1 2.885.984 2.553c.57 2.049.57 2.049-.43 4.049-10.787.023-21.575.04-32.362.052-5.009.005-10.017.012-15.026.023-4.83.011-9.66.017-14.491.02-1.846.002-3.692.005-5.538.01-2.58.008-5.158.009-7.737.009l-2.33.01c-5.288-.01-5.288-.01-7.516-1.124a131.584 131.584 0 01-2.437-7.25c-2.843-8.908-6.101-17.643-9.438-26.375l-.766-2.005A4845.59 4845.59 0 001626 1918c-5.487 4.568-5.487 4.568-10.312 9.812-22.416 26.078-57.926 41.232-91.688 44.188-6.204.368-12.412.39-18.625.375l-2.528-.002c-12.981-.038-25.304-.766-37.847-4.373l-2.336-.65c-11.212-3.193-21.431-7.82-31.664-13.35l-2.072-1.09c-9.132-4.812-17.195-9.995-24.928-16.91-.84-.73-1.678-1.462-2.543-2.215A370.345 370.345 0 011394 1927l-2.46-2.262c-7.442-7.1-12.205-14.1-18.54-22.738l-1 68c-58.108 0-58.108 0-85.123-14.032a307.22 307.22 0 00-6.084-3.027c-26.34-13.097-45.815-34.188-57.793-60.941l-1.613-3.5c-6.681-15.468-10.8-32.735-12.387-49.5l-.332-3.332c-.612-7.407-.732-14.78-.723-22.207l.003-3.122c.032-13.268.277-26.534.516-39.8l.18-10.383c.117-6.719.235-13.437.356-20.156l-8 1-1.363-2.938c-14.666-30.858-37.824-54.177-66.637-72.062l-3-2v-2h79c-.04-20.36-.04-20.36-.09-40.719l-.008-7.62-.008-2.014c-.007-1.947-.007-3.895-.008-5.842l-.006-3.331c.23-4.726 2.946-3.6 7.07-3.603zm229.823 164.821c-2.995 3.9-5.458 7.976-7.773 12.309l-1.305 2.34c-9.655 18.981-11.01 39.593-4.695 59.66 7.117 21.637 20.451 36.646 40.5 47.25 18.8 9.41 39.839 9.894 59.727 3.754 8.09-3.085 14.915-7.826 21.773-13.004l2.246-1.645c14.27-11.341 23.663-30.806 26.047-48.538 2.638-24.518-3.77-45.579-18.703-64.942-13.448-14.93-32.325-24.113-52.344-25.29-26.05-.912-48.27 7.85-65.473 28.106zM1290 1741c-.832 19.552-.832 19.552-1.133 39.098l-.003 3.196c0 2.175.001 4.349.006 6.523.005 3.277 0 6.553-.007 9.83-.65 38.948-.65 38.948 17.68 72.103 4.208 3.853 8.669 7.156 13.457 10.25l1.95 1.277c12.512 7.193 28.159 6.114 42.05 5.723-.504-6.301-2.69-11.233-5.312-16.938-15.17-34.284-14.702-76.078-1.688-111.062 2.041-5.2 4.21-10.337 6.46-15.45 1.606-3.058 1.606-3.058 1.54-4.55h-75zM770.473 1515.875c20.01-.495 41.73 2.657 59.527 12.125l3.5 1.742c13.208 6.669 24.827 14.996 35.5 25.258l2.777 2.621c25.754 24.906 40.464 61.117 41.506 96.762.524 39.807-15.83 75.39-43.283 103.617-14.418 14.212-40.93 33-62 33 5.366 7.074 10.82 14.06 16.438 20.938 6.405 7.842 12.666 15.79 18.896 23.771a1337.543 1337.543 0 0017.83 22.33 897.196 897.196 0 0111.67 14.67c3.52 4.498 7.115 8.93 10.729 13.353 4.726 5.787 9.314 11.653 13.843 17.594 2.956 3.843 6.025 7.591 9.094 11.344 4.01 4.905 7.966 9.84 11.813 14.875 5.065 6.63 10.156 13.226 15.628 19.527l1.534 1.776c1 1.154 2.007 2.303 3.02 3.445C942 1958.667 942 1958.667 942 1962c-13.326.046-26.652.082-39.978.104a8835.6 8835.6 0 00-18.563.047c-5.972.022-11.943.034-17.915.039-2.278.003-4.556.01-6.834.021-3.192.015-6.383.017-9.574.016l-2.853.022c-5.666-.018-10.917-.036-15.275-4.112l-1.883-2.45-2.32-2.976c-.937-1.236-1.871-2.473-2.805-3.711l-3.68-4.836a4338.07 4338.07 0 01-6.164-8.117 530.696 530.696 0 00-12.906-16.36c-4.79-5.823-9.373-11.769-13.868-17.822-3.712-4.995-7.519-9.906-11.379-14.787A968.03 968.03 0 01767 1875.5c-4.819-6.285-9.707-12.514-14.609-18.734-2.757-3.5-5.51-7.006-8.261-10.511a3675.016 3675.016 0 00-6.95-8.825c-4.48-5.672-8.936-11.36-13.305-17.118l-2.195-2.886C720 1815 720 1815 719 1812h-3l.003 2.05c.022 16.53.038 33.058.049 49.587.005 7.994.012 15.987.023 23.98.01 6.974.017 13.948.02 20.921 0 3.687.003 7.373.01 11.06.009 4.133.009 8.265.009 12.398l.01 3.634c-.01 8.498-.472 16.9-1.124 25.37-10.935.023-21.87.04-32.805.052-5.077.005-10.154.012-15.23.023-4.896.011-9.792.017-14.687.02-1.872.002-3.744.005-5.616.01a2559.4 2559.4 0 01-7.838.009l-2.369.01c-5.34-.01-5.34-.01-6.455-1.124a122.07 122.07 0 01-.127-6.02l-.009-3.986.007-4.429-.006-4.651a7183.66 7183.66 0 010-12.792c.003-3.624 0-7.249 0-10.873-.007-11.81 0-23.62.008-35.43.003-4.074.004-8.149.006-12.223.024-52.85.084-105.7.398-158.548.029-4.918.05-9.836.069-14.754.025-6.573.066-13.146.117-19.718.016-2.356.028-4.712.035-7.068.057-18.856 1.075-37.75 6.69-55.883l.912-3.021c2.74-8.72 6.266-16.736 10.9-24.604l1.086-1.85c17.901-29.97 46.422-52.758 80.164-62.338 13.219-3.3 26.62-5.25 40.223-5.937zm-44.848 103.031c-10.943 14.469-13.919 30.288-12.625 48.094 2.428 13.567 9.405 24.371 19 34l1.676 1.746c11.488 10.976 26.9 12.853 41.972 12.566 16.232-.69 29.316-7.551 40.352-19.312 11.487-14.683 14.298-30.907 13-49-2.244-15.858-11.252-28.844-23.438-38.813-25.305-18.638-60.007-13.669-79.937 10.72z"/><path fill="currentColor" d="M1048.063 1653.625l2.298-.024c14.597-.118 28.592 1.742 42.576 6.086l2.507.77c40.114 12.763 73.304 40.774 92.835 77.979 5.914 11.518 10.858 22.92 13.721 35.564l.585 2.503c9.485 41.948 1.832 84.72-20.648 121.122-4.172 6.535-8.797 12.564-13.937 18.375l-1.334 1.55c-7.442 8.621-15.442 15.785-24.666 22.45l-1.744 1.284c-34.037 24.85-75.718 32.424-117.006 26.028-33.61-5.674-63.603-20.802-88.25-44.312l-2.66-2.465c-6.486-6.185-11.544-13.012-16.34-20.535l-1.137-1.754c-23.24-36.09-31.333-79.953-22.595-122.079 3.422-14.94 9.538-28.697 16.732-42.167l1.68-3.18c6.175-11.14 14.131-21.03 23.32-29.82l1-2h2v-2c18.906-20.718 48.46-33.162 75-40l2.063-.548c11.16-2.82 22.562-2.76 34-2.827zm-58.43 106.027c-13.208 17.089-20.446 38.597-18.242 60.172 2.22 16.466 8.57 31.693 19.609 44.176l2.266 2.633c14.463 15.66 34.786 23.137 55.664 24.652 20.714.495 38.983-7.316 54.07-21.285 3.425-3.77 6.272-7.703 9-12l1.074-1.69c11.605-18.714 14.773-40.073 10.863-61.685-3.21-12.524-8.723-23.64-16.937-33.625l-1.793-2.32c-12.19-14.92-30.304-23.395-49.207-25.68-25.826-2.277-49.147 7.357-66.367 26.652zM1370 1715h1l.148 2.266.227 2.984c.07.975.14 1.95.21 2.953.4 2.693 1.05 4.467 2.415 6.797l-2 3h-2v-18z"/></svg>