<svg xmlns="http://www.w3.org/2000/svg" viewBox="0 0 524.4 113.4"><path d="M446.4.8h37.2v96.3h40.8v15.5h-78V.8zM363.9.8H438V14h-38.4v37.3h34.9v13.2h-34.9v32.6h40.8v15.5h-76.5V.8zM267.8.8h89.6v14.4h-26.3v97.4h-35.7V15.2h-27.6V.8zM263.3 0H233s-36 1.3-38.8 34.7 34.6 32.8 41.6 47C240.2 91 229.3 98 220 98h-25v15.5h42.4s44.3-2.4 38.1-40.5c-4-24.6-31.1-20.8-40.2-37.3s6.7-21.2 8.4-21.2h19.3ZM110.2.8h75.3V14h-39.6v37.3h34.9v13.2h-34.9v32.6h41.9v15.5h-77.6V.8zM87.2.8l-24 78L38.4.8H0l39.4 111.8H68L106.4.8H87.2z" fill="#D7262E"/></svg>