<svg xmlns="http://www.w3.org/2000/svg" viewBox="0 0 433 97"><path d="M185.2 46.9a13.8 13.8 0 0 0 8.8-13c0-11.7-8.3-17.5-19.7-17.5h-29.9V80h32.5c10 0 19.8-7 19.8-17.7 0-12.7-11.5-15.3-11.5-15.4ZM160 29.6h11.6a5.7 5.7 0 0 1 6 5.3v.7a6 6 0 0 1-6 5.8h-11.7Zm11.7 37h-11.6V54.3h11.3c5.7 0 8.4 2.5 8.4 6.2 0 4.6-3.4 6.3-8.1 6.3ZM231.1 14.8c-18.4 0-29.2 14.7-29.2 33.3s10.8 33.3 29.2 33.3 29.2-14.6 29.2-33.3-10.7-33.3-29.2-33.3Zm0 51.4c-9 0-13.5-8.1-13.5-18.1s4.5-18 13.5-18 13.6 8 13.6 18-4.6 18-13.6 18ZM294.2 41.4l-2.2-.5c-5.4-1.1-9.7-2.5-9.7-6.4 0-4.2 4.1-6 7.7-6a17.9 17.9 0 0 1 13 6l9.9-9.8a29.7 29.7 0 0 0-23.2-10c-13.4 0-23.6 7.5-23.6 20 0 11.4 8.2 17 18.2 19l2.2.6c8.3 1.7 11.4 3 11.4 7 0 3.8-3.4 6.3-8.6 6.3a20 20 0 0 1-16.1-8.2l-10.1 10a31 31 0 0 0 26.4 11.9c11.9 0 24.6-6.8 24.6-20.7.2-14.5-10.8-17.3-19.9-19.2ZM349.7 66.2c-7 0-14.3-5.8-14.3-18.5 0-11.3 6.8-17.6 13.9-17.6 5.6 0 8.9 2.6 11.5 7l12.8-8.4c-6.4-9.7-14-13.8-24.5-13.8-19.2 0-29.6 14.9-29.6 32.9 0 18.9 11.5 33.7 29.4 33.7 12.6 0 18.6-4.4 25.1-13.8L361.1 59c-2.6 4.2-5.4 7.2-11.4 7.2ZM416.3 16.4v23.4H397V16.4h-16.7V80H397V54.9h19.3V80H433V16.4h-16.7z" fill="#ed0007" fillRule="evenodd"/><path d="M48.2.2a48.2 48.2 0 1 0 48.2 48.2A48.2 48.2 0 0 0 48.2.2Zm0 91.9a43.7 43.7 0 1 1 43.7-43.7A43.7 43.7 0 0 1 48.2 92Z"/><path d="M68.1 18.3h-3.3v16.5H31.7V18.3h-3.4a36 36 0 0 0 0 60.2h3.4V62h33.1v16.5h3.3a36 36 0 0 0 0-60.2ZM27.1 72a31.6 31.6 0 0 1-2.6-44.6 32.5 32.5 0 0 1 2.6-2.6Zm37.7-14.6H31.7V39.3h33.1Zm4.5 14.5V24.8a31.6 31.6 0 0 1 2.4 44.7 33.7 33.7 0 0 1-2.4 2.4Z"/></svg>