<svg xmlns="http://www.w3.org/2000/svg" viewBox="0 0 600 275"><path d="M523.8 156.4h31v29a88 88 0 0 1-27.5 4.3c-34.3 0-45.8-17.4-45.8-52.9 0-33.8 11-53.7 45.2-53.7 19.2 0 30 6 39 17.5l23.8-21.8c-14.5-20.7-39.8-27-63.6-27-53.4 0-81.5 29.1-81.5 84.7 0 55.4 25.4 85.4 81.2 85.4 25.7 0 50.7-6.6 64.4-16.1v-80.2h-66.2zm-163 30.9h79v32.1H322.7V54.2h38.2z"/><path d="M228 227.8A127.7 127.7 0 1 0 47.4 47.2 127.7 127.7 0 0 0 228 227.8z" fill="#a50034"/><path d="M99 112.6a14.7 14.7 0 1 0-.2-29.5 14.7 14.7 0 0 0 .2 29.5zm135 29h-64.9v-9.7h74.5l.1 5.7c0 57.9-47.2 104.9-105.4 104.9s-105.5-47-105.5-105a105.2 105.2 0 0 1 110-104.8v9.6l-4.5-.1c-53 0-95.9 42.7-95.9 95.3 0 52.7 43 95.4 95.9 95.4a95.6 95.6 0 0 0 95.8-91zm-65 40h-26.1v-98h-9.7v107.7H169z" fill="#fff"/></svg>