<svg xmlns="http://www.w3.org/2000/svg" viewBox="0 0 300 64.6"><path d="M68.9 1H1v62.6L68.9 1" fill="#44c8f5"/><path d="M35 1H1v31.3L35 1" fill="#231f20"/><path d="M163.6 14.6 154.8 50h15.6l8.9-35.4h-15.7M127.9 35.1h-3.6l5.8-10.2 1.9 10.2h-4.1Zm-2.2-20.5L105.5 50H116l3.3-5.9h14.4l1 6H150l-6.5-35.5h-17.8M235.1 14.6 226.3 50h15.6l8.9-35.4H235M228.1 14.6h-16l-13.4 11.6 2.9-11.6h-15L177.8 50h15l3-12.2 8 12.2h18l-13.3-18.5 19.6-17M93.3 30.7s-1 11.5-10.9 11.5H77L81.8 23h5c1.8 0 7 .5 6.5 7.6Zm-.8-16-4-.1H68.7L60 50H87c10.9 0 21.5-8 21.5-20.4 0-14.5-16.1-15-16.1-15M288.2 14.6l-5.3 20.8-7-20.8h-17.3L249.7 50h10.9l5.2-21 7 21h17.3l8.9-35.4h-10.8" fill="#00a0e4"/></svg>