<svg width="512" height="512" viewBox="0 0 512 512" xmlns="http://www.w3.org/2000/svg">
  <circle cx="256" cy="256" r="256" fill="#1193d4"/>
  <g transform="translate(106, 106)">
    <svg width="300" height="300" viewBox="0 -960 960 960">
      <path d="M686-132 444-376q-20 8-40 12t-44 4q-100 0-170-70t-70-170q0-36 10-68t28-62l146 146 72-72-146-146q29-18 62-28t68-10q100 0 170 70t70 170q0 23-4 44t-12 40l244 242q12 12 12 29t-12 29l-84 84q-12 12-29 12t-29-12Zm29-85 27-27-256-256q18-20 26-46t8-54q0-60-38-104t-96-54l74 74q12 12 12 28t-12 28L332-500q-12 12-28 12t-28-12l-74-74q9 57 54 96t104 38q26 0 52-8t47-25l256 256ZM472-488Z" fill="white"/>
    </svg>
  </g>
</svg>
