<svg xmlns="http://www.w3.org/2000/svg" viewBox="0 0 669.9 111.5"><g fill-rule="evenodd"><path fill="#902371" d="M13.2 72.7V106c0 3.7-2.2 5.6-6.4 5.6-4.5 0-6.8-1.9-6.8-5.6V45.1c0-14.6 11.4-21.9 34.3-21.9H46c3.4 0 5.1 1.7 5.1 5 0 3.6-1.7 5.4-5.1 5.4H35.6c-15 0-22.4 3.8-22.4 11.4v17h76.6c3.3 0 5 1.8 5 5.2 0 3.7-1.7 5.5-5 5.5zM212.5 86.8c0 16-14.4 24-43.1 24h-19.7c-27.2 0-40.9-8-40.9-24V28c0-3.7 2.2-5.5 6.4-5.5 4.5 0 6.8 1.8 6.8 5.5v57.8c0 9.7 8.6 14.5 25.7 14.5h23.8c18.7 0 28-4.8 28-14.5V28c0-3.7 2.3-5.5 6.6-5.5s6.4 1.8 6.4 5.5zM269.2 85.8c0 16.7-11.1 25-33.3 25h-7.5c-3.5 0-5.2-1.7-5.2-5.2 0-3.4 1.7-5.2 5.2-5.2h7.5c13.4 0 20.1-4.5 20.1-13.7V28.1c0-3.7 2.2-5.5 6.6-5.5 4.4 0 6.6 1.8 6.6 5.5zM299.4 106c0 3.5-2.2 5.3-6.6 5.3-4.4 0-6.6-1.8-6.6-5.4V28c0-3.5 2.3-5.3 7-5.3 4.1 0 6.2 1.8 6.2 5.4z"/><path fill="currentColor" d="M374.9 29.5c0-4.2-4.2-6.4-12.7-6.4H326v21.4h35.8c8.8 0 13.2-2.2 13.2-6.6zm8 8.9c0 8.5-7.4 12.8-22.1 12.8h-34.9v17c0 2.3-1.4 3.4-4.1 3.4-2.7 0-4-1.1-4-3.4V19.3c0-1.8.8-2.7 2.6-2.7H361c14.6 0 21.8 4.1 21.8 12.2zm35.8 32.9c-16.9 0-25.3-4.7-25.3-14V19.6c0-2.2 1.4-3.3 4-3.3 2.8 0 4.2 1 4.2 3.3v37.7c0 5 5.6 7.5 16.7 7.5h31.8c2.1 0 3.1 1.1 3.1 3.4 0 2-1 3-3 3zm106.9-15c0 10-9 15-26.9 15h-12.3c-17 0-25.4-5-25.4-15V19.7c0-2.3 1.3-3.4 4-3.4 2.8 0 4.2 1.1 4.2 3.4v36c0 6 5.3 9 16 9H500c11.7 0 17.5-3 17.5-9v-36c0-2.3 1.4-3.4 4.1-3.4 2.7 0 4 1.1 4 3.4zm72.4 2.3c0 8.4-6.8 12.7-20.4 12.7h-36.2c-2 0-3-1.2-3-3.4 0-2 1-3.1 3-3.1h37.2c7.5 0 11.2-2.2 11.2-6.5v-4.7c0-4.7-4.4-7.1-13.3-7.1H560c-14.2 0-21.3-3.8-21.3-11.5v-5.5c0-8.6 6.3-12.9 18.8-12.9h9c2 0 3 1.2 3 3.4 0 2-1 3.1-3 3.1h-10.3c-6.2 0-9.3 2.3-9.3 7v4c0 4 4 6 11.9 6h16.7c15 0 22.5 4.2 22.5 12.7z"/><path fill="#902371" d="M254.4 0h17.9v17.8h-17.9zM283.9 0h17.8v17.8h-17.8z"/><path fill="#fff" d="M292.8 1.7c1.2 0 2.4.3 3.5 1 1.2.5 2 1.4 2.7 2.6a7.4 7.4 0 0 1 0 7.2c-.6 1.2-1.5 2-2.6 2.7a7.3 7.3 0 0 1-7.2 0 7.3 7.3 0 0 1-2.7-9.9c.7-1.2 1.6-2 2.7-2.7 1.2-.6 2.4-1 3.6-1zm0 1.2c-1 0-2 .3-3 .8s-1.7 1.2-2.2 2.2a6 6 0 0 0 0 6c.5 1 1.2 1.7 2.2 2.2a6.1 6.1 0 0 0 6 0c1-.5 1.7-1.2 2.2-2.2a6 6 0 0 0 0-6c-.5-1-1.3-1.7-2.3-2.2-1-.5-2-.8-3-.8zm-3.2 10V5.1h2.7c.9 0 1.6.1 2 .3.4.1.7.4 1 .7.2.4.3.7.3 1.1 0 .6-.2 1.1-.6 1.5-.4.5-1 .7-1.6.7l.6.5c.4.3.7.8 1.2 1.5l1 1.5h-1.6l-.7-1.2c-.5-1-1-1.6-1.3-1.8-.2-.2-.6-.3-1-.3h-.7V13zm1.3-4.4h1.5c.7 0 1.2 0 1.5-.3.2-.2.4-.5.4-.8 0-.3 0-.5-.2-.7l-.5-.4a4 4 0 0 0-1.3-.1h-1.4z"/><path fill="#902371" d="M579.6 13h11.9V6c0-3 2.5-5.6 5.5-5.6s5.6 2.5 5.6 5.6v7h11.8c3 0 5.6 2.6 5.6 5.6 0 3-2.5 5.6-5.6 5.6h-11.8v7c0 3.1-2.5 5.6-5.6 5.6-3 0-5.5-2.5-5.5-5.5v-7.1h-11.9c-3 0-5.5-2.5-5.5-5.6 0-3 2.5-5.5 5.5-5.5zm73-7v7h11.8c3 0 5.5 2.6 5.5 5.6 0 3-2.5 5.6-5.5 5.6h-11.9v7c0 3.1-2.5 5.6-5.5 5.6s-5.5-2.5-5.5-5.5v-7.1h-12c-3 0-5.4-2.5-5.4-5.6 0-3 2.4-5.5 5.5-5.5h11.9V6c0-3 2.4-5.6 5.5-5.6 3 0 5.5 2.5 5.5 5.6z"/><path fill="currentColor" d="M325.4 106.5h7.2l-3.6-5.7zm8.2 1.5h-9.2l-2 3a.9.9 0 0 1-.6.3 1 1 0 0 1-.6-.2.7.7 0 0 1-.3-.6l.1-.4 6.9-10.3.5-.5a1.4 1.4 0 0 1 1.2 0l.5.5 7 10.3v.4c0 .3 0 .5-.2.6a1 1 0 0 1-.6.2h-.4a1 1 0 0 1-.3-.4zm7.8 2.6c0 .5-.3.7-1 .7-.5 0-.8-.2-.8-.7V99.9c0-.5.3-.7 1-.7.5 0 .8.2.8.7zm15.7-8.3c0-1-1-1.6-2.9-1.6h-7.7v4.4h8c1.8 0 2.6-.4 2.6-1.3zm1.8 1.4c0 1.9-1.5 2.8-4.5 2.8H350l7.5 3.3c.2 0 .3.2.4.3l.1.4c0 .2 0 .4-.2.6l-.6.2h-.3l-10.4-5v4.3c0 .5-.3.7-.8.7-.7 0-1-.2-1-.7V99.9c0-.4.2-.6.6-.6h8.6c3.4 0 5 1 5 3zm13.7-3c-2 0-3 .5-3 1.4v6.1c0 1 1.1 1.6 3.3 1.6h6.6c.4 0 .6.3.6.7 0 .5-.2.7-.6.7h-6.8c-3.2 0-4.8-1-4.8-3v-6c0-2 1.5-3 4.7-3h6.9c.4 0 .6.3.6.8s-.2.7-.6.7zm22.3 1.8c0-1.2-1-1.8-2.9-1.8h-4.2c-2.1 0-3.1.6-3.1 1.8v5.6c0 1.2 1 1.7 3 1.7h4.2c2 0 3-.5 3-1.7zm1.8 5.6c0 2.1-1.7 3.1-5.2 3.1H388c-3.5 0-5.2-1-5.2-3v-5.8c0-2 1.7-3.1 5.2-3.1h3.4c3.5 0 5.2 1 5.2 3.1zm17.6 2c0 .5-.1.7-.3 1l-.8.2h-.4a1 1 0 0 1-.4-.3l-10.6-9.5v9c0 .6-.3.8-.9.8-.5 0-.8-.2-.8-.7v-10.3c0-.3 0-.6.3-.8.2-.2.5-.2.8-.2h.4c.2 0 .3.2.5.3l10.4 9.3v-9c0-.4.3-.7 1-.7.5 0 .8.3.8.8zm15.9-7.8c0-1-1-1.6-2.9-1.6h-7.9v9.1h7.9c2 0 2.9-.5 2.9-1.7zm1.7 5.8c0 2.1-1.5 3.1-4.6 3.1h-9c-.5 0-.7-.2-.7-.6V100c0-.4.2-.6.6-.6h9.1c3.1 0 4.6 1 4.6 3zm5.2 2.5c0 .5-.3.7-.9.7-.6 0-.9-.2-.9-.7V99.9c0-.5.3-.7 1-.7.5 0 .8.2.8.7zm9.3-9.9v9.9c0 .5-.3.7-1 .7-.5 0-.8-.2-.8-.7v-9.9h-5c-.4 0-.6-.2-.6-.7 0-.5.2-.7.6-.7h11.7c.4 0 .6.2.6.7 0 .5-.2.7-.6.7zm9.2 9.9c0 .5-.3.7-1 .7-.5 0-.8-.2-.8-.7V99.9c0-.5.3-.7 1-.7.5 0 .8.2.8.7zm15.4-8c0-1.3-1-1.9-2.9-1.9h-4.3c-2 0-3 .6-3 1.8v5.6c0 1.2 1 1.7 3 1.7h4.2c2 0 3-.5 3-1.7zm1.8 5.5c0 2.1-1.8 3.1-5.3 3.1h-3.3c-3.5 0-5.3-1-5.3-3v-5.8c0-2 1.8-3.1 5.3-3.1h3.3c3.5 0 5.3 1 5.3 3.1zm17.6 2c0 .5-.2.7-.4 1l-.7.2h-.5a1 1 0 0 1-.4-.3l-10.5-9.5v9c0 .6-.3.8-.9.8-.6 0-.9-.2-.9-.7v-10.3c0-.3.1-.6.4-.8.2-.2.5-.2.7-.2h.5c.2 0 .3.2.4.3l10.5 9.3v-9c0-.4.3-.7 1-.7.5 0 .8.3.8.8zm5.1-5.5H506c.4 0 .6.2.6.7 0 .5-.2.7-.6.7h-10.5v2.3c0 1 1 1.5 3 1.5h7.5c.5 0 .7.3.7.7 0 .5-.2.7-.7.7h-7.7c-3 0-4.6-1-4.6-2.8v-6.2c0-1 .4-1.7 1.2-2.2a7 7 0 0 1 3.6-.7h2.1c.4 0 .6.2.6.7 0 .5-.2.7-.6.7h-1.4c-2.5 0-3.7.5-3.7 1.5zm26.1-2.3c0-1-1-1.6-2.9-1.6H511v4.4h8c1.8 0 2.6-.4 2.6-1.3zm1.8 1.4c0 1.9-1.5 2.8-4.6 2.8h-4.3l7.5 3.3c.2 0 .3.2.4.3l.1.4c0 .2 0 .4-.2.6l-.6.2h-.3l-10.4-5v4.3c0 .5-.3.7-.8.7-.7 0-1-.2-1-.7V99.9c0-.4.2-.6.6-.6h8.6c3.3 0 5 1 5 3zm21.5 4.8c0 1.8-1.5 2.7-4.5 2.7h-8c-.4 0-.6-.2-.6-.7 0-.4.2-.7.7-.7h8.2c1.6 0 2.4-.4 2.4-1.4v-1c0-1-1-1.6-3-1.6h-3.5c-3.1 0-4.7-.8-4.7-2.5v-1.2c0-1.9 1.4-2.8 4.1-2.8h2c.4 0 .7.2.7.7 0 .5-.3.7-.7.7h-2.3c-1.3 0-2 .5-2 1.5v1c0 .8.9 1.2 2.6 1.2h3.7c3.2 0 4.9 1 4.9 2.8zm6.8-3.7 5.2-5.3.6-.3c.3 0 .5.1.7.3.2.1.3.3.3.5s-.1.3-.3.5l-5.6 5.7v4.4c-.1.5-.4.7-1 .7-.5 0-.8-.2-.8-.7v-4.4l-5.7-5.7c-.2-.2-.2-.3-.2-.5s0-.4.2-.5c.2-.2.4-.2.6-.2h.4s.2 0 .2.2zm21.2 3.7c0 1.8-1.5 2.7-4.4 2.7h-8c-.4 0-.7-.2-.7-.7 0-.4.3-.7.7-.7h8.2c1.6 0 2.4-.4 2.4-1.4v-1c0-1-1-1.6-2.9-1.6h-3.6c-3.1 0-4.7-.8-4.7-2.5v-1.2c0-1.9 1.4-2.8 4.1-2.8h2c.5 0 .7.2.7.7 0 .5-.2.7-.7.7h-2.2c-1.4 0-2 .5-2 1.5v1c0 .8.8 1.2 2.5 1.2h3.7c3.3 0 5 1 5 2.8zm6.3-7.8v9.9c0 .5-.3.7-1 .7-.5 0-.8-.2-.8-.7v-9.9h-5c-.4 0-.6-.2-.6-.7 0-.5.2-.7.7-.7H584c.4 0 .6.2.6.7 0 .5-.2.7-.6.7zm9.2 3.9h10.5c.4 0 .6.2.6.7 0 .5-.2.7-.6.7h-10.5v2.3c0 1 1 1.5 2.9 1.5h7.6c.4 0 .7.3.7.7 0 .5-.3.7-.7.7h-7.7c-3 0-4.6-1-4.6-2.8v-6.2c0-1 .4-1.7 1.2-2.2a7 7 0 0 1 3.6-.7h2c.5 0 .7.2.7.7 0 .5-.2.7-.6.7H592c-2.5 0-3.7.5-3.7 1.5zm33.1 6c0 .5-.3.7-.9.7-.5 0-.8-.2-.8-.7v-8.7l-6.7 8.8c-.3.4-.7.6-1.2.6l-.7-.1-.6-.5-6.8-8.8v8.7c0 .5-.2.7-.8.7-.6 0-.9-.2-.9-.7v-10.4c0-.7.3-1 1-1 .5 0 .9.2 1.2.6l7.6 9.8 7.5-9.9.5-.4.6-.1c.7 0 1 .4 1 1zM317.7 79.2h308.6v9.5H317.7Z"/></g></svg>