<svg xmlns="http://www.w3.org/2000/svg" fill-rule="evenodd" clip-rule="evenodd" image-rendering="optimizeQuality" shape-rendering="geometricPrecision" text-rendering="geometricPrecision" viewBox="0 0 2000 415"><path fill="#d3d3d3" d="M218.5-.5h12c18.2 2.6 35.9 7.3 53 14a312.2 312.2 0 0 1-21 21c-20-5.7-40.2-8.7-61-9-3.5-.7-6.8-1.2-10-1.5L213 2.5l1 2c1.7-1.5 3.2-3.2 4.5-5Z"/><path fill="#bebebe" d="M128.5 14.5A5987.9 5987.9 0 0 1 16 128.5c-.3-1-.8-1.6-1.5-2a211.6 211.6 0 0 1 92-102.5c7-4 14.3-7.2 22-9.5Z"/><path fill="#c6c6c6" d="M283.5 13.5c8.1 2.9 15.8 6.6 23 11a440.8 440.8 0 0 1-17.5 18 5 5 0 0 0-.5 3 319 319 0 0 0-26-11c7.3-6.7 14.3-13.7 21-21Z"/><path fill="#bbbab9" d="M306.5 24.5a89 89 0 0 1 19 12c-.2 1.4-.7 2.8-1.5 4a76.7 76.7 0 0 0-15.5 17c-6-4-12.8-8-20-12-.1-1 0-2 .5-3 6-5.9 11.9-11.9 17.5-18Z"/><path fill="#aeadad" d="M325.5 36.5a77 77 0 0 1 20 16c-.8.8-1.7.5-2.5-1-6.8 6.6-13 13-18.5 19-5.5-5-10.9-9.3-16-13 4.2-6.3 9.4-12 15.5-17 .8-1.2 1.3-2.6 1.5-4Z"/><path fill="#d1d2d2" d="M223.5 42.5c4 .7 8 1.8 12 3.5l-17 17c-8.5.2-16.8.7-25 1.5a76.3 76.3 0 0 1-14 2v60c-1 3.2-1.8 6.5-2.5 10l-25 25-1 5c-.2-4.9-.7-9.5-1.5-14 .2-25.3 0-50.7-.5-76-7 3.5-13.8 7.1-20.5 11a9.6 9.6 0 0 1-2-2.5l36-36c-.6-.4-.9-.9-1-1.5 20.4-5.8 41.1-7.4 62-5Z" opacity=".9"/><path fill="#cbcccc" d="M161.5 47.5c.1.6.4 1.1 1 1.5l-36 36c.6 1 1.2 1.8 2 2.5a140.9 140.9 0 0 0-63 104h84c-9.5.8-19.2 1.3-29 1.5l1 1-26 26c-6 1.2-12 1.7-18 1.5a226 226 0 0 1 28-28.5c-13.7-.5-27.3-.7-41-.5.2-4.7.5-9.2 1-13.5l-1.5-1.5a578.8 578.8 0 0 1-20.5 20c-.6 8.9-1 17.9-1 27-5.1-62 16.9-112.5 66-151.5 16-11.7 33.7-20.2 53-25.5Z"/><path fill="#c6c7c7" d="M223.5 42.5c19.2 1.4 37.2 6.4 54 15-1.3.2-2.5-.2-3.5-1-12.3 13.3-25 26.3-38 39l-1 4c-.2-10.8-.7-21.5-1.5-32-3.8-1-7.8-1.8-12-2.5-9.3-.5-18.7-.7-28-.5 8.2-.8 16.5-1.3 25-1.5l17-17a52 52 0 0 0-12-3.5Z"/><path fill="#b8b8b8" d="M277.5 57.5a92.8 92.8 0 0 1 29 18c-4 5.6-8.7 10.7-14 15.5.8.7 1 1.5 1 2.5-9-6.4-18.7-12-29-17-1 15.7-1.3 31.3-1 47a5.5 5.5 0 0 1-1.5-3c-8.3 9.3-17 18.3-26 27l-1-1c-.2 3.5-.7 6.9-1.5 10v-89c.8 10.5 1.3 21.2 1.5 32l1-4c13-12.7 25.7-25.7 38-39 1 .8 2.2 1.2 3.5 1Z" opacity=".9"/><path fill="#939190" d="M345.5 52.5c6 4 11 9 15 15-1-.1-2 0-3 .5a124.5 124.5 0 0 0-16 17.5c-6-4.8-11.7-9.8-17-15 5.6-6 11.7-12.4 18.5-19 .8 1.5 1.7 1.8 2.5 1Z" opacity=".9"/><path fill="#c5c5c5" d="M182.5-.5h36a31.5 31.5 0 0 1-4.5 5l-1-2L191.5 24c3.2.3 6.5.8 10 1.5-74.6 5.3-128.4 42.3-161.5 111-6.6 16.6-11 33.6-13.5 51-.4-1-1-1.2-2-.5l-24 24c.8 1.3.5 2.5-1 3.5v-31c2.7-20 7.7-39 15-57 .7.4 1.2 1 1.5 2 38.4-37.9 75.9-75.9 112.5-114a203.3 203.3 0 0 1 54-15Z"/><path fill="#aeadad" d="M360.5 67.5a97 97 0 0 1 15 18 5 5 0 0 1-3 .5 441 441 0 0 1-18 17.5c-4.5-5.8-8.8-11.8-13-18 4.4-6 9.8-11.8 16-17.5 1-.5 2-.6 3-.5Z"/><path fill="#939090" d="M306.5 75.5c9.3 6.6 17.6 14.3 25 23 0 .4-.1.8-.5 1-.8-1.5-2-2-3.5-1.5L315 110.5a5 5 0 0 1-.5 3l-21-20c0-1-.2-1.8-1-2.5 5.3-4.8 10-10 14-15.5Z"/><path fill="#bbbcbc" d="M375.5 85.5c3.8 5 7.2 10.3 10 16-5 6.6-10.7 12.7-17 18.5a5 5 0 0 1-3 .5c-3.3-6-7-11.6-11-17a441 441 0 0 0 18-17.5 5 5 0 0 0 3-.5Z"/><path fill="#e21e23" d="M1671.5 99.5a117.1 117.1 0 0 1 107 43.5 617.3 617.3 0 0 1-34 38.5c-21.6-30.1-49.9-39-85-26.5-33.5 18-45.4 45.4-35.5 82.5 16.8 35 44.3 48.5 82.5 40.5a73 73 0 0 0 36.5-26.5l35 35c.7.7.7 1.3 0 2-39.1 42-85.6 52.8-139.5 32.5-48.2-24.5-71-64-68.5-118.5 10.3-57.8 44-92 101.5-103Z"/><path fill="#a3a4a4" d="m331.5 98.5 5 6c-.2 1.3.2 2.5 1 3.5-5.2 5-10.2 10.2-15 15.5-3-3-5.7-6.4-8-10a5 5 0 0 0 .5-3L327.5 98c1.5-.5 2.7 0 3.5 1.5.4-.2.6-.6.5-1Z"/><path fill="#e21e24" d="M501.5 104.5h53v92h100v-92c17.6-.3 35 0 52.5 1 .7 73.7.7 147.3 0 221-17.3 2-34.8 2.6-52.5 2v-87h-100c.2 28.7 0 57.3-.5 86-17.4 1-35 1.3-52.5 1v-224Z"/><path fill="#e21e23" d="M813.5 104.5c17.6-.3 35 0 52.5 1 31.4 73.1 63 146.1 95 219 .5 1.3.7 2.6.5 4-19 .3-38 0-57-1-6.9-16-13.9-31.7-21-47.5-29.3-.7-58.7-.7-88 0-7.1 15.8-14.1 31.6-21 47.5-19 1-38 1.3-57 1a16369 16369 0 0 1 96-224Zm25 75c1.8.6 3 2 3.5 4 7.4 16.6 14.6 33.2 21.5 50-16 1.3-32 1.3-48 0l23-54Z"/><path fill="#e21d23" d="M973.5 104.5c16-.2 32 0 48 .5l97.5 137.5c.5-46 .7-92 .5-138h53v224c-17.3.2-34.7 0-52-.5a9552.6 9552.6 0 0 1-93.5-131.5l-1 131c-17.4 1-35 1.3-52.5 1v-224ZM1187.5 104.5h194v47h-71v177c-17.6.3-35 0-52.5-1-.5-58.7-.7-117.3-.5-176h-70v-47ZM1398.5 104.5h162v47h-109v42c32.3-.2 64.7 0 97 .5 1 14.8 1.3 29.6 1 44.5h-98v42h112c.3 16 0 31.7-1 47.5-54.6.8-109 .7-163.5-.5-.5-74.3-.7-148.7-.5-223ZM1999.5 104.5v224c-17.2.3-34.4 0-51.5-1-.5-28.7-.7-57.3-.5-86h-100v87c-17.6.3-35 0-52.5-1-.5-74.3-.7-148.7-.5-223h53v92h100v-92h52Z"/><path fill="#c8c8c8" d="M385.5 101.5c4.8 7.2 8.8 14.9 12 23a282 282 0 0 0-21 19c-3.3-7.7-7-15.4-11-23 1 .1 2 0 3-.5 6.3-5.8 12-12 17-18.5Z"/><path fill="#969494" d="M263.5 123.5v42c-.7-.4-1.2-1-1.5-2-9.8 9-18.8 18.8-27 29-.2-2.5-.7-4.9-1.5-7v-29c.8-3.1 1.3-6.5 1.5-10l1 1c9-8.7 17.7-17.7 26-27 .2 1.2.7 2.2 1.5 3Z"/><path fill="#bfbebe" d="M336.5 104.5c10.3 13 18.7 27.4 25 43-1-.1-2 0-3 .5a301 301 0 0 1-16 15.5c-5.3-14.5-12-27.9-20-40 4.8-5.3 9.8-10.5 15-15.5-.8-1-1.2-2.2-1-3.5Z"/><path fill="#bebfbf" d="M179.5 126.5v44c-.7 5.6-1.7 11.3-3 17-9.8 9.7-19.5 19.5-29 29.5a12.4 12.4 0 0 1-7 4c1.6.2 2.9.7 4 1.5-27 .5-53.3.5-79 0v3c-1-1-1.3-2.4-1-4h13c6 .2 12-.3 18-1.5l26-26-1-1c9.8-.2 19.5-.7 29-1.5v-39c.8 4.5 1.3 9.1 1.5 14l1-5 25-25c.7-3.5 1.6-6.8 2.5-10Z"/><path fill="#9e9e9e" d="M263.5 165.5v11c-13.2 14.7-27 29-41.5 43l-.5 1c3.6 1 7.3 1.3 11 1v1h-52l25-2a1049 1049 0 0 1 27-27.5c-8.7-.7-17.3-.7-26 0-8.4 9.7-17.7 19-28 28a536.2 536.2 0 0 1-26.5 28.5c-.8-1.1-1.6-1.1-2.5 0-.3-6.8-.3-13.1 0-19 1 .8 2 1 3 .5l38-38c-3.5-.2-6.9-.7-10-1.5h53v-6c.8 2.1 1.3 4.5 1.5 7 8.2-10.2 17.2-20 27-29 .3 1 .8 1.6 1.5 2Z"/><path fill="#d1d2d2" d="M397.5 124.5c9 20 14.3 41 16 63 .2 3-.5 5.9-2 8.5l1 1-24.5 24.5a8.4 8.4 0 0 1-.5-4c.7-25-3-49.7-11-74a282 282 0 0 1 21-19Z"/><path fill="#b1b1b1" d="M179.5 170.5c-.3 7.2 0 14.2 1 21 3.1.8 6.5 1.3 10 1.5l-38 38c-1 .5-2 .3-3-.5v-8h-5a8.8 8.8 0 0 0-4-1.5c2.8-.6 5.1-1.9 7-4 9.5-10 19.2-19.8 29-29.5 1.3-5.7 2.3-11.4 3-17Z" opacity=".9"/><path fill="#d2d3d3" d="M361.5 147.5c11.1 30.7 13.5 62 7 94-10.9 10.4-22 21.4-33.5 33 .4-1.5.2-2.8-.5-4a170 170 0 0 0 10.5-29 321 321 0 0 0 3.5-19c-16.2-.8-32.5-1.3-49-1.5 9.2-9 18.2-18.2 27-27.5l22-2a349 349 0 0 0-6-28 301 301 0 0 0 16-15.5c1-.5 2-.6 3-.5Z"/><path fill="#d4d5d5" d="M77.5 221.5h-13c-.3 1.6 0 3 1 4 .7 3 1 6 1 9-.7-.4-1.2-1-1.5-2-5.8 6.3-12 12-18.5 17-2-7.9-3.4-16.2-4-25 0-9.1.4-18.1 1-27 7-6.5 13.8-13.2 20.5-20l1.5 1.5c-.5 4.3-.8 8.8-1 13.5 13.7-.2 27.3 0 41 .5a226 226 0 0 0-28 28.5Z"/><path fill="#909090" d="M180.5 222.5c-1 10.8-1.3 21.8-1 33a13 13 0 0 1-1.5-5c-.2 1.8-.7 3.4-1.5 5a830.7 830.7 0 0 0-24.5 24l-1 4c-.2-2.2-.7-4.2-1.5-6v-28c.9-1.1 1.7-1.1 2.5 0 9.2-9.2 18-18.7 26.5-28.5 10.3-9 19.6-18.3 28-28 8.7-.7 17.3-.7 26 0a1049 1049 0 0 0-27 27.5l-25 2Z" opacity=".9"/><path fill="#c2c2c2" d="M265.5 191.5h83l-22 2a1049 1049 0 0 1-27 27.5c16.5.2 32.8.7 49 1.5-25.2.3-53.5.3-85 0v35c-9.6 9-19 18.3-28 28l-2 62c.3-41.8 0-83.5-1-125v-1c1.8 6.3 2.6 13 2.5 20 15.2-16.2 30.7-32 46.5-47.5a129 129 0 0 1-16-2.5Z" opacity=".9"/><path fill="#b5b6b6" d="M263.5 176.5c-.6 5.4 0 10.4 2 15a129 129 0 0 0 16 2.5 1562.7 1562.7 0 0 0-46.5 47.5c.1-7-.7-13.7-2.5-20-3.7.3-7.4 0-11-1l.5-1c14.5-14 28.3-28.3 41.5-43Z"/><path fill="#d2d3d3" d="M26.5 187.5c-2 24.7.4 49 7 73-1.2 1.2-1.2 2.4 0 3.5a575.4 575.4 0 0 0-20 20.5 230.1 230.1 0 0 1-14-54v-16c1.5-1 1.8-2.2 1-3.5l24-24c1-.7 1.6-.5 2 .5Z"/><path fill="#c6c6c6" d="M413.5 187.5c3 28.8 0 57.2-9 85-1.2-.5-2.4-1.2-3.5-2l-55 55c-.4-.6-.9-.9-1.5-1a195.8 195.8 0 0 0 43-107c-.2 1.4 0 2.7.5 4l24.5-24.5-1-1c1.5-2.6 2.2-5.5 2-8.5Z"/><path fill="#cacbca" d="M368.5 241.5c-14.6 59.8-50.6 100.6-108 122.5-7.2 2.5-14.5 4.3-22 5.5-.1-.6-.4-1.1-1-1.5l27-27c-2.2-.7-2.6-1.9-1-3.5a144.6 144.6 0 0 0 71-67c.7 1.2.9 2.5.5 4 11.5-11.6 22.6-22.6 33.5-33Z"/><path fill="#c6c6c6" d="M66.5 234.5c2 8 4.3 16 7 24-6 5.3-11.6 11-17 17-4.4-8.5-7.7-17.2-10-26 6.6-5 12.7-10.7 18.5-17 .3 1 .8 1.6 1.5 2Z" opacity=".9"/><path fill="#adaeae" d="M179.5 255.5v40l-2.5-13-25 25-1-1c-.2 4.2-.7 8.2-1.5 12-.4-13.8-.4-27.5 0-41 .8 1.8 1.3 3.8 1.5 6l1-4c8-8.2 16.2-16.2 24.5-24 .8-1.6 1.3-3.2 1.5-5a13 13 0 0 0 1.5 5Z" opacity=".9"/><path fill="#b9b8b8" d="M73.5 258.5c5 11.4 11 22.4 18 33 0 .4-.1.8-.5 1-1-.8-1.6-1.8-2-3-4.7 5.8-9.8 11.2-15.5 16-4.1-6.2-8.5-12.3-13-18.5l1-1c-.6-1.7-1.9-3.3-4-5l1-1a9.2 9.2 0 0 1-2-4.5c5.4-6 11-11.7 17-17Z"/><path fill="#c6c7c7" d="M33.5 260.5c3.3 9 7 18 11 27-6.7 6.7-13.7 13-21 19-3.5-7.2-6.9-14.6-10-22 6.4-7 13.1-13.8 20-20.5-1.2-1.1-1.2-2.3 0-3.5Z"/><path fill="silver" d="M404.5 272.5c-28.4 75.3-81.2 122-158.5 140l-1-1c-3.7 1.4-7.5 2-11.5 2a6.3 6.3 0 0 1 6-3.5l30-30c-2.2-1.4-4.6-1.2-7 .5-.6-.1-1-.5-1-1a184.9 184.9 0 0 0 83-55c.6.1 1.1.4 1.5 1l55-55c1.1.8 2.3 1.5 3.5 2Z"/><path fill="#a6a4a4" d="M91.5 291.5c2.4 2.4 4.4 5 6 8-6 4-11.4 9.4-16 16a58.6 58.6 0 0 0-7-7c-.6-1-1-2-1-3 5.7-4.8 10.8-10.2 15.5-16 .4 1.2 1 2.2 2 3 .4-.2.6-.6.5-1Z"/><path fill="#c0c1c1" d="M179.5 295.5v40c-1-1.5-1.7-3.2-2.5-5L147.5 360c1.3.4 2 1.3 2 2.5-9.2-3-17.8-7-26-12a68.6 68.6 0 0 0 17-17c2.9 1.2 5.7 2.6 8.5 4 .5-6.3.7-12.7.5-19 .8-3.8 1.3-7.8 1.5-12l1 1 25-25 2.5 13Z" opacity=".9"/><path fill="#b8b8b8" d="M44.5 287.5a217 217 0 0 0 19 30c-6.7 5.2-13 11-19 17.5 2.4 1.6 2.4 2.7 0 3.5a337.8 337.8 0 0 1-21-32c7.3-6 14.3-12.3 21-19Z"/><path fill="#939393" d="m97.5 299.5 18 17a40779 40779 0 0 1-17 16l-5-4c0-.7-.3-1-1-1l-11-12c4.6-6.6 10-12 16-16Z"/><path fill="#d2d3d3" d="M263.5 257.5v80c-1.6 1.6-1.2 2.8 1 3.5l-27 27c.6.4.9.9 1 1.5a28 28 0 0 0-9.5 3c-27 2.5-53.5-.8-79.5-10 0-1.3-.7-2-2-2.5l29.5-29.5c.8 1.8 1.6 3.5 2.5 5v12c18 2.7 36 2.7 54 0l2-62c9-9.7 18.4-19 28-28Z"/><path fill="#a19f9e" d="M63.5 317.5c3.2 3.4 6.2 7.1 9 11-6 6.7-12.3 13-19 19-.7.1-1.4 0-2-.5a25.5 25.5 0 0 0-7-8.5c2.4-.8 2.4-2 0-3.5 6-6.4 12.3-12.3 19-17.5Z"/><path fill="#b5b3b3" d="M115.5 316.5c7.8 6.4 16.1 12 25 17a68.6 68.6 0 0 1-17 17c-9.8-5-18.1-11-25-18l17-16Z"/><path fill="#908e8e" d="M72.5 328.5c4 4.7 8.3 9 13 13-6.7 5.2-13 11-19 17.5a4.6 4.6 0 0 1 2 4.5c-1-2-2.7-3.4-5-4 .2-1-.2-1.7-1-2-2-3-4.7-5.4-8-7-.6-1-1-2-1-3 6.7-6 13-12.3 19-19Z"/><path fill="#adacac" d="M85.5 341.5a201 201 0 0 0 19 15c-7.6 6-14.3 12.3-20 19-5.8-3.5-11.1-7.5-16-12 .2-1.9-.5-3.4-2-4.5 6-6.5 12.3-12.3 19-17.5Z"/><path fill="#bcbcbb" d="m104.5 356.5 18 11c-7 6.3-13.7 13-20 20a114 114 0 0 1-18-12c5.7-6.7 12.4-13 20-19Z"/><path fill="#c8c8c8" d="m122.5 367.5 22 10c-7.4 6.4-14 13.4-20 21-7.6-3.2-15-6.8-22-11 6.3-7 13-13.7 20-20Z"/><path fill="#d3d3d3" d="M144.5 377.5a222 222 0 0 0 68 11c2.4.3 4.7.8 7 1.5a825 825 0 0 1-25 24.5h-12c-19.6-2.8-39-8-58-16 6-7.6 12.6-14.6 20-21Z"/><path fill="#c9caca" d="M233.5 413.5c-1.3-.2-2.3.1-3 1h-36a825 825 0 0 0 25-24.5c-2.3-.7-4.6-1.2-7-1.5 16.5-1.2 32.9-4.2 49-9 0 .5.4.9 1 1 2.4-1.7 4.8-1.9 7-.5l-30 30a6.3 6.3 0 0 0-6 3.5Z"/></svg>