<svg xmlns="http://www.w3.org/2000/svg" viewBox="0 0 251.4 122.3"><path fill="#ea0000" d="M187.4 41.7c-5.3 0-10 1.1-13.6 3.7a14.7 14.7 0 0 0-6.1 12c0 10 7.5 14 14.5 17.5 5.9 3 11.3 5 11.3 10.5 0 5.3-6.2 9.3-13 9.3-7.9 0-13.8-6.2-13.8-6.2l3.2 10.9s6.3 1.4 10.5 1.4c8.1 0 14-2 18.2-6 3-2.9 4.6-6.6 4.6-10.8 0-9.2-7.3-13.3-14.2-16.7-6-3-11.5-4.8-11.5-11 0-5.8 5.2-8.8 10.8-8.8 7.4 0 9.8 4.5 9.8 4.5v-9s-5.7-1.3-10.7-1.3zm-152.6 1H0c1.8 1.1 3.6 3.2 3.6 5.6v46.2c0 2.2-1.7 4.2-3.5 5.3h16.5c-1.8-1-3.5-3-3.5-5.3V71.4h13c1.7 0 4 1 4.5 2.8v-8.7H13V48.6h16.2c2.4 0 4.5 2 5.5 3.9zm1.7 0c1.8 1 3.5 2.9 3.5 5.3v34.8c0 11.8 10.4 18.1 20.6 18.1 10.1 0 20.2-6.3 20.2-18.1V48c0-2.4 2.1-4.3 3.9-5.3h-18c2.3 1 4.2 2.9 4.2 5.3v34.8c0 7.6-5.5 12-10.3 12-4.9 0-10.7-4.4-10.7-12V48c0-2.4 2.2-4.3 4.4-5.3zm51.2 0c1.3.9 3.7 2.5 3.7 4.7v56c0 7.4-5 16.5-9.1 18.9 12.7-2.1 19.1-10.9 19.1-21V48c0-2.3 2-4.3 4.1-5.3zm20.3 0c1.4.9 3.9 2.6 3.9 4.7v47.2c0 2.1-2.5 4.3-3.9 5.2h17.8c-2-1-4-3-4-5.3V48c0-2.3 2-4.3 4-5.3zm21.4 0-3.6 11.4s4-5.5 7.3-5.5h9.3v46c0 2.1-2.5 4.3-3.8 5.2h17.2c-1.7-1.3-3.6-3-3.6-5.3V48.6h8.1c4 0 5 4.5 5 4.5l3.2-10.4zm74.1 0c1.8 1 3.8 2.9 3.8 5.3v34.8c0 11.8 10.1 18.1 20.3 18.1 10.1 0 19.9-6.3 19.9-18.1v-35c0-2.5 2-4 3.9-5H234c1.4.7 3.6 2.2 3.6 4v36c0 7.6-5.2 12-10 12s-10.3-4.4-10.3-12v-35c0-2.5 1.8-4 4-5zM118 0c-4.8 0-9.3 2.4-12.4 6.3v9.5c2.3-5.5 3.8-6.7 4.8-7.7A10.9 10.9 0 0 1 118 5a10.9 10.9 0 1 1-8 18.3c-1.8-1.8-2.9-3.3-4.4-4.8-1-1-1.3-1.7-2.8-2.7-1.8-1.2-4.7-2-7-2a12.7 12.7 0 1 0 0 25.4 12.7 12.7 0 0 0 9.8-4.7v-6.6c-3.7 5.8-7.3 6.6-9.9 6.6a8 8 0 0 1-8-8 8 8 0 0 1 8-8c2.4 0 4.6 1 6.2 2.8 2.3 2.5 3.3 4 4.5 5.3A15.8 15.8 0 1 0 118 0z" paint-order="stroke fill markers"/></svg>