<svg xmlns="http://www.w3.org/2000/svg" viewBox="0 0 120 29.4"><path d="M20 .2 25.7 16c-2 2-6.1 5-10.8 6.8a32.4 32.4 0 0 1-9.8 1.8L0 9.2a33.7 33.7 0 0 0 20-9" fill="#CC1526"/><path d="M97.7 23.3h-4.3l8.2-18.7h4.3l-8.2 18.7zm6-23.3h4.2l-1.4 3.4H102l1.5-3.4zM96 0h4.3L90 23.3h-4.3L96 0zM85.2 9c0-.8-.4-1.4-1.3-1.4-1.2 0-3.2 1.6-5 4.2l-1 1.5c4-.3 7.3-2 7.3-4.4zm-8.9 9c0 1.3.6 2 1.7 2 1.6 0 3.5-1.2 5.8-3.4l1.5 3.2c-2 2.2-5 4-7.7 4-3.4 0-5.3-2-5.3-5.1 0-2.3 1-5 2.7-7.9 2.6-4 6-6.7 9.6-6.7 2.8 0 4.6 1.7 4.6 4.3 0 4.7-5 8-12.6 8.3l-.3 1.3zm-6.1-8.5c0-1-.5-1.4-1.6-1.4-1.4 0-3.2 1.3-4.8 3.4-2 2.7-2.9 5-2.9 6.8 0 1 .6 1.5 1.5 1.5 1.6 0 3.9-1.7 5.9-4.5l1.6 3.4c-1.9 2.5-4.7 5-8.2 5-3.1 0-4.9-2-4.9-5 0-3.2 1.6-6.3 3.7-9C63.2 6.1 66.3 4 69.3 4c3 0 4.6 1.8 4.6 4.5 0 .7 0 1.5-.2 2l-3.9.6c.2-.6.4-1.2.4-1.7zm-11-5.2a4 4 0 0 1 2.1.6l-2.2 4-1.2-.2c-2.4 0-4.8 2.6-6.7 7l-3.3 7.6h-4.3l8.2-18.7H56L54.5 8c1.6-2.5 2.7-3.8 4.7-3.8zM33.6 18.7c0 1 .5 1.5 1.6 1.5 1.7 0 3.7-1.8 5-4.4.3-.3.5-.7.6-1-5.3.3-7.2 2-7.2 3.9zm8.7-9C42.3 8.4 42 8 41 8c-1.5 0-3.7 1.3-5.8 3.4l-1-3.6c2.1-2 5-3.7 7.6-3.7 2.8 0 4.6 1.9 4.6 4.8 0 2.3-1.1 5.5-2.5 8-2.1 3.7-5.1 6.9-9 6.9-3 0-5.1-2-5.1-4.8 0-4.5 4.2-7 12.3-7.4.2-.7.3-1.3.3-2zm19.1 14.9 1.1 3c-.4.5-1.2 1-2 1.4-.7.3-1.4.4-2 .4l-1-3a7 7 0 0 0 2-.5c.9-.4 1.5-1 2-1.3zm44-1.3H101L111.3 0h4.2L111 10.4l8-6.6 1 3.6-7.2 5.7 1.8 10.2h-4l-1.3-9.1-4 9.1"/></svg>