<svg xmlns="http://www.w3.org/2000/svg" viewBox="0 0 465.9 121"><defs><clipPath id="a" clipPathUnits="userSpaceOnUse"><path d="M-1110.5-592.7h1920v1080h-1920Z"/></clipPath><clipPath id="b" clipPathUnits="userSpaceOnUse"><path d="M-968.9-631.5h1920v1080h-1920Z"/></clipPath><clipPath id="c" clipPathUnits="userSpaceOnUse"><path d="M-1050.5-619.4h1920v1080h-1920Z"/></clipPath><clipPath id="d" clipPathUnits="userSpaceOnUse"><path d="M-883.5-633.4h1920v1080h-1920Z"/></clipPath><clipPath id="e" clipPathUnits="userSpaceOnUse"><path d="M-854.6-646.9h1920v1080h-1920Z"/></clipPath><clipPath id="f" clipPathUnits="userSpaceOnUse"><path d="M-1086-629.7H834v1080h-1920Z"/></clipPath><clipPath id="g" clipPathUnits="userSpaceOnUse"><path d="M-938.6-629.7h1920v1080h-1920Z"/></clipPath></defs><g fill="#008375"><path d="M0 0v12c0 .7 1 1 1.3.3L7.7-.3c.1-.3.4-.4.7-.4h15.1c.6 0 .9.5.7 1l-9.7 19v.7l9.3 18.3c.2.4-.1 1-.6 1H8a.7.7 0 0 1-.6-.4l-6-10.8c-.4-.6-1.4-.4-1.4.3v24.1c0 .4-.3.7-.7.7h-14.5a.7.7 0 0 1-.7-.7V0c0-.4.3-.7.7-.7H-.7c.4 0 .7.3.7.7" clip-path="url(#a)" transform="matrix(1.3333333 0 0 -1.3333333 433.6 105.4)"/><path d="m0 0-3.8-12.7a.7.7 0 0 0-1.3 0L-9 0c-.1.3-.4.5-.7.5h-14.3a.7.7 0 0 1-.6-1L-12.4-36-17-49.6c-.2-.5.2-1 .7-1H-2c.3 0 .5.3.6.5l17 49.6c.2.5-.2 1-.6 1H.7A.7.7 0 0 1 0 0" clip-path="url(#b)" transform="matrix(1.3333333 0 0 -1.3333333 244.8 53.7)"/><path d="M0 0a12.9 12.9 0 0 1-13.7 13c-4.3-.2-8.4-2-11.7-4.8a.7.7 0 0 0-1 .1c-1.9 3.4-5.3 5.4-10.2 5.3a19 19 0 0 1-10-3.5.7.7 0 0 0-1.2.6v1.1c0 .4-.3.8-.7.8H-63a.7.7 0 0 1-.7-.8v-38.5c0-.4.3-.7.7-.7h14.5c.4 0 .7.3.7.7v22c0 2 1.7 3.7 3.8 3.7h.4c2.1 0 3.8-1.7 3.8-3.7v-22c0-.4.3-.7.7-.7h14.5c.4 0 .7.3.7.7v22c0 2 1.7 3.7 3.8 3.7h.4c2 0 3.8-1.7 3.8-3.7v-22c0-.4.3-.7.7-.7H-.7c.4 0 .7.3.7.7V0z" clip-path="url(#c)" transform="matrix(1.3333333 0 0 -1.3333333 353.7 69.8)"/><path d="M0 0a21 21 0 0 1-3.6-.3v12.2c0 .4-.3.7-.7.7h-7.6v-.1a29 29 0 0 0-7.6-9V-8c2-1.1 3.7-2.8 3.8-5.2 0-1.8-1.5-3.3-3.1-3.3l-.7.2v-6A19.6 19.6 0 0 1-.2-42 21 21 0 1 1 0 0m2-26.7A5.9 5.9 0 0 0-.6-15.2c3.1.7 6.2-1.3 7-4.5a5.9 5.9 0 0 0-4.6-7" clip-path="url(#d)" transform="matrix(1.3333333 0 0 -1.3333333 131 51.1)"/><path d="M0 0a4 4 0 0 0-3 4.8c.6 2.3 3.2 2.4 4.9 1.6l.8-.5C4.4 4.4 5.8 1.4 5.2.2 5-.5 3.5-.5 2-.3 1.2-.3.6-.1 0 0m.8.7c.6-.1.6 0 .4.6A3 3 0 0 0 1 3.2c0 .3.4.6.8.8h.6c.7 0 .7.3.3.8l-1 .7C.9 6-.4 6-1.2 4.6c-1-1.5.5-3.8 2-4m1.2-51A26 26 0 0 0-3.4-53c.6-.4 2.8.8 5.3-.1l.8-.4c1.6-1 1.5-1.7.6-1.8.5-.3.5-.8 0-.8h-24.2c-2.3 0 1 2.4.7 2.4-18-.1-22.6 7.9-24 13.2-2.8 10.7 1.5 18.6 2.4 21.5 1.2 3.7 3.6 9.1-2.7 11.9-3.4 1.5-8.2-3.6-14-2-6 1.5-10.2 6.2-10.8 14V7c.6 10.6 10.6 16.4 20.4 17.3 20 2 30.8-13.2 27.5-31.5-.3-1.5-1.9-7.7-4-13.7-2-5.9-2.2-13.8 0-18a16.3 16.3 0 0 0 10.5 10.2c3.8 1.7 6.7 4.6 8 9.5.6 2.5 0 5.4-1.7 7.5-1.6 2-4 3-6.3 5-1 1-2.2 2.1-3 3.8a9.8 9.8 0 0 0 2 10.7c.5.6.6 1.3-.4 1.3-2.3.2-4.5 3-5 5.3-1.4 5.5 1.6 7.4 4.2 7.6a4 4 0 0 0 2.2-.4c1.8-.9 3-3 3.8-5 .2 1.6-1 3.4-1.6 4.4-.6.6-1.5 1.7-.4 2.7 1.9 1.8 5.7 1.9 7.6-2.3.8-2 .6-6.4-.6-8.2 3.7.2 6.2-.5 8-1.5C5.9 9.4 6.2 5 8 2.3 9.2.8 11.3-.9 13.2-1c.9 0 1.2-.1 1.3-.4v-.2c-.2-.8-1.4-1.8-1.8-2.2-.5-.6-.5-1.8-3-3.6-.6-.4-2.8-3-5.3-3.5L2-11.5c-1.7-.3-3.3-.5-3.7-1-1.4-1.2.7-3.6 2.2-5L2-19c.8-.9 1.3-1.9 1.3-3 3.2.4 8.1-1.4 8.2-4.6 0-.9-1-1.7-1.7-1.4-1.5.8-4.1 1.3-5.6.7.7-2 .3-4.2-.8-5.8C5-34.3 7-37 7.2-39.5c.3-5-2-8.5-5.3-10.9M-6.6-11a18 18 0 0 0 3.8-6.1 13 13 0 0 0 1.4-4.9h3c-.1 2.1-1.5 3.3-2.8 4.8-1 1-2 2.4-2.1 3.8-.2 2.1 2.8 2.5 5.2 2.8l1.3.2c1.3.3 2.8 1 3.7 2-1.7-.1-3.4-.2-5 0l-2.4.7c-.8.3-1.7.3-2.6.2-1.4-.1-2.1.3-.5.9.7.2 1.2.9 1.5 1.6.6 1.6 1.2 1 .8-.4 0-.5.2-1.4.6-1.6.8-.3 1.7-.5 2.6-.6l1.7-.1c2.3 0 4.9.3 6.6 1.8.7.7 1.4 1.7 1.8 2.7.2.6 1.3 1.7-.1 2.2-1.5.4-3 .7-4.4.7-.6 0-1 0-.8 1.6C7 4 4.7 7 1.9 8.4c-1 .6-2.3 1-3.3 1-4 0-7.1-1.9-7.4-5.9-.2-2.6 3.4-4 6-4 1.3 0 1.7-.8 0-.9-3.3-.1-5.7-.9-5.9-4.2 0-1.7 1-4.2 2-5.5m8.4-21.4.2.4c.6 1.3 1 3.4 1 4.8l-1-.5c-1.5-.5-3.4.2-4.4-.3l1-.5c.8-.6.8-2.1-1.3-1.5-1.4.5-6.2.5-9.9-2.3 4.8 1.6 11.6 3.1 14.4 0" clip-path="url(#e)" transform="matrix(1.3333333 0 0 -1.3333333 92.4 33.1)"/><path d="M0 0c-3 2.2-7 3.3-11.8 3.3-5.2 0-9.7-.5-13.4-1.5a.7.7 0 0 1-.5-.6L-28-8.6c-.1-.6.4-1 1-.9 3.6 1.1 6.7 1.7 9.4 1.7 4.8 0 7.3-1 7.3-4.4v-.2c-2.8.8-5.7 1.2-8.6 1.2h-.5A14 14 0 0 1-29-15a11.9 11.9 0 0 1-4-10v-.3l.1-2c.5-2.8 1.7-5.1 4-7.1a14 14 0 0 1 9.4-3.7H-18.8c3 0 5.8.6 8.6 1.4v-.3c0-.4.3-.7.7-.7H4.6c.3 0 .6.3.6.7v25.6C5.2-6.3 3.5-2.6 0 0m-12.8-27.6c-2-.4-4 .8-4.4 2.8-.4 2 .8 4 2.8 4.4 2 .5 4-.8 4.4-2.8.4-2-.9-4-2.8-4.4" clip-path="url(#f)" transform="matrix(1.3333333 0 0 -1.3333333 400.9 56.1)"/><path d="M0 0c-3 2.2-7 3.3-11.8 3.3-5.2 0-9.7-.5-13.4-1.5a.7.7 0 0 1-.5-.6L-28-8.6c-.1-.6.4-1 1-.9 3.6 1.1 6.7 1.7 9.4 1.7 4.8 0 7.3-1 7.3-4.4v-.2c-2.8.8-5.7 1.2-8.6 1.2h-.5A14 14 0 0 1-29-15c-2.7-2.4-4-5.5-4-9.1V-25.2l.1-2c.5-2.8 1.7-5.1 4-7.1a14 14 0 0 1 9.4-3.7H-18.8c3 0 5.8.6 8.6 1.4v-.3c0-.4.3-.7.7-.7H4.6c.3 0 .6.3.6.7v25.6C5.2-6.3 3.5-2.6 0 0m-12.8-27.6c-2-.4-4 .8-4.4 2.8-.4 2 .8 4 2.8 4.4 2 .5 4-.8 4.4-2.8.4-2-.8-4-2.8-4.4" clip-path="url(#g)" transform="matrix(1.3333333 0 0 -1.3333333 204.4 56.1)"/></g></svg>