<svg xmlns="http://www.w3.org/2000/svg" viewBox="-50 240 750 180"><defs><clipPath id="a" clipPathUnits="userSpaceOnUse"><path d="M-82.4 208.6h500v-500h-500Z"/></clipPath><clipPath id="b" clipPathUnits="userSpaceOnUse"><path d="M-200.5 286h500v-500h-500Z"/></clipPath><clipPath id="c" clipPathUnits="userSpaceOnUse"><path d="M-255.5 205.6h500v-500h-500Z"/></clipPath><clipPath id="d" clipPathUnits="userSpaceOnUse"><path d="M-433.4 205.6h500v-500h-500Z"/></clipPath><clipPath id="e" clipPathUnits="userSpaceOnUse"><path d="M-126 305.6h500v-500h-500Z"/></clipPath><clipPath id="f" clipPathUnits="userSpaceOnUse"><path d="M-134 219.5h500v-500h-500Z"/></clipPath></defs><path fill="currentColor" d="M0 0a54.2 54.2 0 0 1-24.3 5.3c-17.9 0-33-12.5-33-29.8 0-6.5 2.1-12.6 7.7-18.4 4.8-4.9 6.8-6 21.7-14.2 7.4-4 8.1-7.7 8.1-10.6 0-4.2-3.3-11-14.3-11-8.2 0-16.8 4-23.3 9.2v-22.3C-45.9-95.7-39.3-97-32-97-11.7-97 3-85 3-68c0 9-4.3 15.8-7.8 19-4.3 4.4-7 5.8-20.6 13.5-6.2 3.5-9 7.2-9 11.8 0 2.2 1 11 14 11 8.3 0 16.2-4.2 20.4-7z" clip-path="url(#a)" transform="matrix(1.3333333 0 0 -1.3333333 109.8 278.1)"/><path fill="currentColor" d="M0 0c-23.5 1.5-32.6 16.7-32.6 31.8 0 19.5 14.7 32 35 32a68 68 0 0 0 29.3-6.6V77A79.5 79.5 0 0 1 1 82.7c-38.7 0-57.8-24.7-57.8-51.6 0-23.7 14.6-50.7 57.8-50.7 13.5 0 25.2 1.9 33.4 3.5v49.8H11.3V0C9-.3 0 0 0 0" clip-path="url(#b)" transform="matrix(1.3333333 0 0 -1.3333333 267.4 381.3)"/><path fill="currentColor" d="M0 0h20.5l30.6-38.7L82 0h20.7v-100h-6.9L79.5-79.5v42L53-71h-3.4L23-37.5v-40.8L5.8-100H0Z" clip-path="url(#c)" transform="matrix(1.1333333 0 0 -1.3333333 340.7 274.1)"/><path fill="currentColor" d="m0 0 41.6-100h-28l-26 62.5-23.3-62.5h-25.5L-23.6 0Z" clip-path="url(#d)" transform="matrix(1.3333333 0 0 -1.3333333 577.9 274.1)"/><path fill="currentColor" d="M0 0h-23.1v95.3L0 83Z" clip-path="url(#e)" transform="matrix(1.3333333 0 0 -1.3333333 168 407.4)"/><path fill="#93c01c" d="M0 0a12.5 12.5 0 1 0 0 25A12.5 12.5 0 1 0 0 0m-.1 18.8a6.3 6.3 0 0 1-6.4-6.4C-6.5 9-3.7 6.1 0 6.1c3.6 0 6.3 2.8 6.3 6.3 0 3.6-2.7 6.4-6.3 6.4" clip-path="url(#f)" transform="matrix(1.3333333 0 0 -1.3333333 178.5 292.6)"/></svg>