<svg xmlns="http://www.w3.org/2000/svg" viewBox="0 0 425 425"><g fill="#5cc52c"><path d="M114 104c1-2 3-2 5-2h22l5 1 1 4v138c0 3 1 6 3 8h11l2-2v-7l-1-53 1-4 5-1h23l5 1 1 4v50c0 5 2 10 6 12 6 2 12 1 18-2l1-4v-55l1-5 5-1h22l5 1 1 3v55c0 3 1 6 4 8s7 1 11 0l2-4-1-22c0-10 3-20 10-28s18-12 29-13 22 0 32 4c8 4 14 9 18 17 4 6 5 14 5 22-1 9 0 18-2 27-3 8-9 15-16 19-10 6-22 8-33 7-11 0-21-3-30-10h-2c-5 4-10 7-16 8-8 2-17 2-25 0l-5-3-5 1c-11 3-23 4-35 3-7-2-14-4-20-8-1-1-2-2-3-1-5 4-11 7-17 9-10 2-21 1-30-4-9-6-14-16-14-26v-29l-1-5-4-1H91l-4 1-1 6v98l-5 2H57c-2 0-4 0-5-2V218l-3-2c-2 0-5 1-8-1l-1-5v-18l1-5c3-2 7 0 10-1l1-5a44 44 0 0 1 42-43l2 3v31c0 2 0 4-2 5-2 2-5 0-7 2v7h23c2 0 3-2 3-4v-75l1-3Zm201 111c-3 1-6 4-7 7-2 4-2 8-2 12s0 9 2 12c1 4 4 6 8 7 5 2 11-1 14-6 2-4 1-10 1-15 1-4 1-8-2-12s-8-6-14-5M374 265c3-1 7 0 9 2 2 3 2 6 2 9 0 2-2 5-5 6l-8-1c-3-1-4-3-4-6l1-7c1-2 3-3 5-3"/></g></svg>