<svg xmlns="http://www.w3.org/2000/svg" viewBox="0 0 187.1 29.2" fill="#0056A8"><path fill-rule="evenodd" d="M45 16c0-4.5-.6-8.2-9.7-8.2-7.6 0-10.2 2.8-10.1 7.3H32c.2-1.7 1.7-2.4 2.8-2.4.8 0 2.5.2 2.5 1.6 0 4.2-13.2.3-13.2 9.2 0 4 4.2 5.6 6.4 5.6 2.8-.1 5-.6 7.2-2.6l.8 2h6.8c-.3-.7-.4-12.4-.4-12.4zm-11.2 8.7c-1.5 0-2.2-1-2.2-2 0-1.6 3.4-1.6 6-2.8.1 2.6-1.2 4.8-3.8 4.8zm146-4.3c-.2 1.5-1 3.4-3 3.4-2.4 0-3.7-2.3-3.7-5.2 0-2.3.8-5.4 3.7-5.4.8 0 1.5.3 2 .8s.8 1.2.8 2h7.3c-.5-5.7-5-7.9-10.1-7.9-6.4 0-11 3.8-11 10.4 0 6.5 4.8 10.5 11 10.5 5.3 0 9.6-2.7 10.3-8.6h-7.3zm-22.2 8.1h7.3V8.8h-7.3zm0-22.8h7.3v-5h-7.3zM122.9 8c-6.5 0-11 3.9-11 10.6 0 6.6 4.9 10.5 11 10.5 6.2 0 11-3.8 11-10.9 0-6-4.2-10.2-11-10.2zm0 16c-2 0-3.4-2.2-3.4-5.8 0-2.2.9-4.9 3.5-4.9 2 0 3.4 2.2 3.4 5 0 3.7-1.4 5.6-3.5 5.6zM98.5 13.5c0-1 1.1-1.4 2.4-1.4.6 0 1.4.1 1.8.4.2.2.7.8.8 1.4h7c-.3-5.1-5.3-6.2-9.8-6.2-4 0-9.2 1.6-9.2 6.5 0 8.1 12.3 5.1 12.3 8.2 0 1.4-1 1.9-2.8 1.9-.8 0-1.6-.5-2-.9-.5-.4-.8-.8-.8-1.7h-6.9c.1 5.4 5 7.4 9.5 7.4 8.1 0 10.5-3.6 10.5-7.6 0-7.7-12.8-5.3-12.8-8zM90.2 16c0-4.6-.6-8.3-9.7-8.3-7.6 0-10.1 2.8-10 7.3h6.7c.2-1.7 1.8-2.4 2.8-2.4.9 0 2.5.2 2.5 1.6 0 4.2-13.1.3-13.1 9.2 0 4 4.1 5.6 6.3 5.6 2.9-.1 5-.6 7.2-2.6l.9 2h6.7c-.3-.7-.3-12.4-.3-12.4zM79 24.7c-1.5 0-2.1-1-2.1-2 0-1.6 3.4-1.6 5.9-2.8.1 2.6-1.1 4.8-3.8 4.8zM13.1 0H0v28.5h8.5v-8.8h4.9c7.6 0 11.3-4.1 11.3-9.8 0-5.4-4-9.9-11.6-9.9zm-.4 13.4H8.5V7h3c2 0 4.7.5 4.7 3 0 2.2-1.5 3.4-3.5 3.4zm136-5.5c-2.8 0-4 .5-6.7 3V8.6h-7v19.8h7V18.1c0-2.5 1.3-4 3.6-4 2.2 0 2.7 1.2 2.7 3v11.4h7.6V16.4c0-5.3-2-8.5-7.1-8.5zM61 7.9c-2.9 0-4.1.5-6.8 3V8.6h-7v19.8h7.4V18.1c0-2.5 1-4.3 3.3-4.3 2.2 0 2.6 1.5 2.6 3.4v11.3H68V16.4c0-5.3-2-8.5-7.1-8.5Z" clip-rule="evenodd"/></svg>