<svg xmlns="http://www.w3.org/2000/svg" viewBox="0 0 2468 802"><path fill="#BA1723" d="M377.5 254.8h3.6a386.2 386.2 0 0 1 58 3.6c40.3 5.7 78.3 20.1 107.9 48.6l2.3 2.1c31 29 43.3 76 44.8 117 .2 8 .2 16 .2 23.8v10.7a10253 10253 0 0 1 .1 85.8v2.6a257742476.6 257742476.6 0 0 0 .3 158c-.1 7.4-.1 7.4-3 10.6a102.5 102.5 0 0 1-75.7 6.8c-8.5-2.9-16-6.8-23-12.4l-2-1.4c-15.2-12-22-34-25-52.6l-1.6 2a189.3 189.3 0 0 1-127.8 70.7c-45.8 4.3-98.1.3-135.2-30-3.6-3.1-7-6.4-10.4-9.7l-2.2-2a109.6 109.6 0 0 1-27.1-45l-.7-2a125.3 125.3 0 0 1-5.4-40.2v-7c0-14.2 1.9-28 6.6-41.4l.9-2.7c11.9-33.4 38.8-56.8 70.2-71.8 70-32.2 153.9-35.4 229.7-34.9-1.5-23.6-4.6-45.7-21-64l-1.5-1.8C427.9 364 405.2 357.4 387 356l-15.8-.3H369c-33 .1-60.5 8.8-84.3 32.2a151 151 0 0 0-22.9 31L258 425c-19.4 4.7-44.4-2-61.2-11.9A62.8 62.8 0 0 1 185 403l-2-2a47 47 0 0 1-11.3-32.2 90.3 90.3 0 0 1 28.8-62.3c45.9-43 117-51.7 177-51.8ZM296 553c-12.3 14.2-14.2 30-13 48 2.2 13 11 24.3 21.6 31.9 22.3 14 51.6 14.9 76.8 9.6a105.6 105.6 0 0 0 67.2-44.7 93.4 93.4 0 0 0 14.5-52.9 3221.6 3221.6 0 0 0-.1-27.9c-89.5-1.5-89.5-1.5-167 36Zm1595-295 2.9.5a214.6 214.6 0 0 1 108 52.5l6.1 5.4c41.5 36.3 61 94.3 64.8 147.8.3 6.1.4 12.3.4 18.4v3.7c0 12.7-1.3 24.6-8 35.6a28.3 28.3 0 0 1-20.8 7.2h-34a22821.3 22821.3 0 0 1-98.4 0h-49.7a1125817.7 1125817.7 0 0 0-134.3-.1l2.8 11.9.7 3.3a114 114 0 0 0 50.4 71.3 137 137 0 0 0 42 17c23.4 5.6 52.8 4.8 76.1-.5l2.6-.6a126.8 126.8 0 0 0 37.4-15c7-4.4 13.3-9.6 19.5-15l4.7-4c7.4-6.2 12.7-14.2 18.3-22l1.4-1.8 2.7-4c1.4-1.6 1.4-1.6 3.4-2a77 77 0 0 1 51.5 28.9c9.8 13 10.6 26.7 9.5 42.5a76.6 76.6 0 0 1-20 37l-2.4 2.6c-30.9 32.8-80.2 47-123.6 52.4l-2.1.3c-14.5 1.7-28.9 2-43.5 2h-11c-20 .1-39.6-1.5-59.2-5.6l-3.1-.7c-33.4-7-66-21-93.1-42l-3-2.3c-46.4-37-73.7-90.6-81.2-149l-.8-7.7-.3-3.4c-5.1-61 8.2-125 45.3-174.6l1.3-1.8A217 217 0 0 1 1728 283l2.6-1.4a242.9 242.9 0 0 1 72.1-24c28.5-5 60-4.7 88.3.4Zm-127 119-2.2 2a118.4 118.4 0 0 0-33.8 68v5h222a141.2 141.2 0 0 0-14.6-55.2A96.5 96.5 0 0 0 1862 348l-2.6-.4A117.3 117.3 0 0 0 1764 377ZM1615 93l2 1.7a61 61 0 0 1 19.2 36.4c.5 20.2-4.1 38.6-18.2 53.9-5.2 5.4-5.2 5.4-8 7-4.2-.2-6.6-2-9.8-4.6a92 92 0 0 0-67-18A46.4 46.4 0 0 0 1503 186a92.9 92.9 0 0 0-12.3 48.6v2.7a4075 4075 0 0 0-.7 27.7h2.5a5768.3 5768.3 0 0 1 51.2-.3c17-.2 35.1 1.5 48.3 13.6 12 13.4 12.8 30.6 12 47.7a44.7 44.7 0 0 1-14.2 32c-14.1 10.6-31.6 11.3-48.7 11.2a3212.5 3212.5 0 0 0-14.8 0l-11-.1-21.3-.1v2a123842.6 123842.6 0 0 1 .4 294.5v3.6c0 14.8-3.4 30.2-13.3 41.8a57 57 0 0 1-11.7 7.4l-1.8 1a79.7 79.7 0 0 1-36.6 6.1l-7.1.1c-17.4 0-35.3-3.5-48.4-15.8-11.4-13-13.8-30-13.7-46.7v-25.5a10294.6 10294.6 0 0 1 0-47.7 47922.3 47922.3 0 0 1 0-90.2v-2.8a509017.9 509017.9 0 0 0 .2-127.8h-3.8a3788.6 3788.6 0 0 1-20.3.2c-40.5.3-40.5.3-55.9-13.2-10.6-10.9-12.2-23-12.2-37.5l-.1-6.5c-.1-13 2-24.5 11.5-34.2 12.5-10.9 28.4-13.2 44.5-13h3.1a2248.7 2248.7 0 0 1 33.2.2v-3.8c-.6-51 1-105.6 35-147.2.4-.5.9-1 1.3-1.7 23.3-27.9 57.9-41 93.3-45l3.4-.3 3.8-.3c40.2-3 84.1-.5 116.2 26.3Zm615-6c20.7 17.8 29.7 44.5 32 71 .4 7.1.3 14.3.3 21.4a8345.6 8345.6 0 0 0 0 24v19a30502.4 30502.4 0 0 1 0 139v16.3a1937991 1937991 0 0 1 0 167.6v2.1a29536.1 29536.1 0 0 0 0 111.2c.2 18.1-.5 37.3-13.6 51.4-14.2 12.5-30.8 15.4-49 15.3h-7.2c-18.1.1-35.8-3.2-49.4-16-14.5-15.4-13.5-36.9-13.5-56.6a7282.8 7282.8 0 0 0 0-47 24977.8 24977.8 0 0 1 0-84.2V514l-.1-69.6v-18.6a1465269.3 1465269.3 0 0 1 0-191.7v-2.5a22991.3 22991.3 0 0 0-.1-102.6 2826.4 2826.4 0 0 1 0-34.3v-2.8c0-6.3 0-6.3 3-9.4 28.7-16 71.1-15.8 97.6 4.5ZM1209.2 272.5A70.1 70.1 0 0 1 1234 320c1.6 24.8-2.4 46.8-19 66l-1.9 2.5a38.7 38.7 0 0 1-7.6 6.7l-2.8 2c-4.4 3-7.4 4.7-12.7 3.8-2-1.5-3.8-3.3-5.7-5-17.3-15-41.4-17.3-63.3-16a75.9 75.9 0 0 0-50.3 25.7c-30.1 38-30.2 91.7-30.1 137.8v13.8a16053.3 16053.3 0 0 0-.2 103.2c0 17.7-1.7 36-14.4 49.5-13.9 13-31.4 15.5-49.7 15.4h-7c-17.4 0-35.2-2.9-48.3-15.4-12.2-13.4-13.5-30.8-13.4-48a3458.3 3458.3 0 0 0 0-18.8v-14.8a13310.7 13310.7 0 0 1-.2-52.7v-74.2a23670.6 23670.6 0 0 0-.2-118.6 9645.4 9645.4 0 0 0 0-77.2 1031.6 1031.6 0 0 1 0-18.2c-.2-12-.2-12 2.3-15.5 1.8-1.4 3.4-2.2 5.5-3l2-1a77 77 0 0 1 5.8-2.2l2.1-.8c22.2-7.8 48.4-7 70.1 2a75.5 75.5 0 0 1 38 44c2.3 7.2 3.8 14.5 5 22l1.2-2.8c13.7-30.4 34-55.7 65.5-68.7 32.4-11.6 76.8-11.7 104.5 11ZM791 274c12 11.9 15 29.4 15.1 45.7a2122.1 2122.1 0 0 1 0 24.5v13.2a29986.6 29986.6 0 0 1 .1 96.3v16.1a46294.5 46294.5 0 0 0 .2 173.4 1900.3 1900.3 0 0 1 0 16.2c0 17.2-1.7 37.7-14.4 50.6-14.3 12.6-30.8 15.4-49.2 15.4h-7c-17.6.2-36-3.2-49.3-15.7-17-19.4-13.8-48.2-13.8-72.2v-12.8a14268.2 14268.2 0 0 1 0-45.5v-2.9a656636.8 656636.8 0 0 0 0-169.7v-2.9a21407.6 21407.6 0 0 0 0-75.5c.1-18.3 1.8-37.3 14.4-51.6 24.7-24.2 77.7-23.4 103.9-2.6Zm-9.3-173.4A65.2 65.2 0 0 1 802 145a63.3 63.3 0 0 1-20 48l-1.6 1.7a56.2 56.2 0 0 1-13.3 8.6l-2 1a64.7 64.7 0 0 1-43.7 3A64.8 64.8 0 0 1 685 178a66.7 66.7 0 0 1-5.1-49.4 75.2 75.2 0 0 1 19-28.5c22.3-22 60-18.1 82.8.5Z"/></svg>