<svg xmlns="http://www.w3.org/2000/svg" viewBox="0 0 224.9 35.9"><path d="M148.5 0c-9.3 0-20.7 3.8-20.8 17.9 0 13.9 11.6 18.3 20.8 18 8.6-.3 18-2.7 18.5-13.1h-9.5c-.3 6.6-5.5 7.9-9 7.9S137.7 30 137.6 18c-.1-11.3 6.5-12.9 11-12.8 4.3 0 8.6 2 8.7 7.2h9.4C166.6 6 161 0 148.5 0ZM0 .6v34.6h9.2V19.9h18.5v15.3h9.2V.6h-9.2v13.9H9V.6Zm44.5 0v34.6h9.2V.6ZM57 .6v5.8h13.4v28.8h9.1V6.4H93V.6Zm114.3 0v34.6h9.2V19.9H199v15.3h9.2V.6H199v13.9h-18.5V.6Zm44.3 0v34.6h9.2V.6ZM101.5.6 85.2 35.3h10.2l3.2-7.8H116l3.2 7.8h10.3L113.1.7Zm5.8 6 6.3 15.3H101z"/></svg>