<svg xmlns="http://www.w3.org/2000/svg" viewBox="0 0 210 50"><path d="M200.1 10.3v5.9c-3-1.2-5.7-1.7-8-1.7-1.4 0-2.5.2-3.4.7-.8.5-1.2 1.1-1.2 1.9 0 1 .9 1.8 2.8 2.6l5.5 2.6c4.4 2.2 6.6 5 6.6 8.5 0 3-1.2 5.3-3.5 7a15.4 15.4 0 0 1-9.4 2.6 43.6 43.6 0 0 1-9.8-1.2v-6a29 29 0 0 0 9.2 1.6c3.3 0 5-1 5-2.8 0-1-.7-1.8-2.1-2.4l-6.1-2.6c-2.2-1-4-2.2-5-3.7a8.4 8.4 0 0 1-1.6-5c0-2.8 1.1-5 3.4-6.6a15 15 0 0 1 9-2.4 33.5 33.5 0 0 1 8.6 1zM27.7 10.3v5.9c-3-1.2-5.7-1.7-8-1.7-1.4 0-2.5.2-3.4.7-.8.5-1.2 1.1-1.2 1.9 0 1 1 1.8 2.8 2.6l5.5 2.6c4.4 2.2 6.6 5 6.6 8.5 0 3-1.2 5.3-3.5 7a15.4 15.4 0 0 1-9.4 2.6 43.7 43.7 0 0 1-9.8-1.2v-6c3.4 1 6.4 1.6 9.2 1.6 3.3 0 5-1 5-2.8 0-1-.7-1.8-2-2.4L13.2 27c-2.2-1-4-2.2-5-3.7a8.3 8.3 0 0 1-1.6-5c0-2.8 1.1-5 3.4-6.6a15 15 0 0 1 9-2.4 33.7 33.7 0 0 1 8.6 1zM34 9.8h8.9v30H34zM71.7 9.8v5.6H58.4V22h11.5v5H58.4v7H72v5.8H49.8v-30zM113.4 9.8v30H105V20l-8.6 20.1h-5.2L82.9 20v19.8h-6v-30h10.9l7.4 18.4L103 9.8zM142.1 9.8v5.6h-13.2V22h11.5v5h-11.5v7h13.5v5.8h-22.1v-30zM173.4 9.8v30H164l-10.7-19.2v19.2h-6v-30h9.8l10.3 18.9V9.8z"/></svg>